<?xml version="1.0" encoding="utf-8"?>
<svg xmlns="http://www.w3.org/2000/svg" version="1.1" viewBox="0 0 968 390">
	<title>Thirteen bars of musical notation, in the key of F, with a 2/2 time signature.</title>
	<path d="m1.0244e-5 19.977h968" fill="none" stroke="#000" stroke-linejoin="bevel" stroke-width="1.5158"/>
	<path d="m1.0244e-5 33.749h968" fill="none" stroke="#000" stroke-linejoin="bevel" stroke-width="1.5158"/>
	<path d="m1.0244e-5 47.521h968" fill="none" stroke="#000" stroke-linejoin="bevel" stroke-width="1.5158"/>
	<path d="m1.0244e-5 61.293h968" fill="none" stroke="#000" stroke-linejoin="bevel" stroke-width="1.5158"/>
	<path d="m1.0244e-5 75.065h968" fill="none" stroke="#000" stroke-linejoin="bevel" stroke-width="1.5158"/>
	<path d="m1.0244e-5 165.96h968" fill="none" stroke="#000" stroke-linejoin="bevel" stroke-width="1.5158"/>
	<path d="m1.0244e-5 179.73h968" fill="none" stroke="#000" stroke-linejoin="bevel" stroke-width="1.5158"/>
	<path d="m1.0244e-5 193.5h968" fill="none" stroke="#000" stroke-linejoin="bevel" stroke-width="1.5158"/>
	<path d="m1.0244e-5 207.27h968" fill="none" stroke="#000" stroke-linejoin="bevel" stroke-width="1.5158"/>
	<path d="m1.0244e-5 221.05h968" fill="none" stroke="#000" stroke-linejoin="bevel" stroke-width="1.5158"/>
	<path d="m1.0244e-5 311.94h968" fill="none" stroke="#000" stroke-linejoin="bevel" stroke-width="1.5158"/>
	<path d="m1.0244e-5 325.71h968" fill="none" stroke="#000" stroke-linejoin="bevel" stroke-width="1.5158"/>
	<path d="m1.0244e-5 339.48h968" fill="none" stroke="#000" stroke-linejoin="bevel" stroke-width="1.5158"/>
	<path d="m1.0244e-5 353.26h968" fill="none" stroke="#000" stroke-linejoin="bevel" stroke-width="1.5158"/>
	<path d="m1.0244e-5 367.03h968" fill="none" stroke="#000" stroke-linejoin="bevel" stroke-width="1.5158"/>
	<path d="m288.98 19.22v56.602" fill="none" stroke="#000" stroke-linejoin="bevel" stroke-width="2.4764"/>
	<path d="m439.84 19.22v56.602" fill="none" stroke="#000" stroke-linejoin="bevel" stroke-width="2.4764"/>
	<path d="m615.48 19.22v56.602" fill="none" stroke="#000" stroke-linejoin="bevel" stroke-width="2.4764"/>
	<path d="m791.12 19.22v56.602" fill="none" stroke="#000" stroke-linejoin="bevel" stroke-width="2.4764"/>
	<path d="m966.76 19.22v56.602" fill="none" stroke="#000" stroke-linejoin="bevel" stroke-width="2.4764"/>
	<path d="m284.26 165.2v56.602" fill="none" stroke="#000" stroke-linejoin="bevel" stroke-width="2.4764"/>
	<path d="m506.81 165.2v56.602" fill="none" stroke="#000" stroke-linejoin="bevel" stroke-width="2.4764"/>
	<path d="m719.44 165.2v56.602" fill="none" stroke="#000" stroke-linejoin="bevel" stroke-width="2.4764"/>
	<path d="m966.76 165.2v56.602" fill="none" stroke="#000" stroke-linejoin="bevel" stroke-width="2.4764"/>
	<path d="m283.32 311.18v56.602" fill="none" stroke="#000" stroke-linejoin="bevel" stroke-width="2.4764"/>
	<path d="m547.42 311.18v56.602" fill="none" stroke="#000" stroke-linejoin="bevel" stroke-width="2.4764"/>
	<path d="m761.52 311.18v56.602" fill="none" stroke="#000" stroke-linejoin="bevel" stroke-width="2.4764"/>
	<path d="m959.19 311.18v56.602" fill="none" stroke="#000" stroke-linejoin="bevel" stroke-width="2.4764"/>
	<path d="m966.76 311.18v56.602" fill="none" stroke="#000" stroke-linejoin="bevel" stroke-width="2.4764"/>
	<path d="m149.62 66.416v-46.439" fill="none" stroke="#000" stroke-linejoin="bevel" stroke-width="1.5158"/>
	<path d="m192.75 66.416v-46.439" fill="none" stroke="#000" stroke-linejoin="bevel" stroke-width="1.5158"/>
	<path d="m219.49 35.6v44.629" fill="none" stroke="#000" stroke-linejoin="bevel" stroke-width="1.5158"/>
	<path d="m308.88 42.486v42.907" fill="none" stroke="#000" stroke-linejoin="bevel" stroke-width="1.5158"/>
	<path d="m374.12 35.6v44.629" fill="none" stroke="#000" stroke-linejoin="bevel" stroke-width="1.5158"/>
	<path d="m459.74 42.486v42.907" fill="none" stroke="#000" stroke-linejoin="bevel" stroke-width="1.5158"/>
	<path d="m528.74 49.372v41.186" fill="none" stroke="#000" stroke-linejoin="bevel" stroke-width="1.5158"/>
	<path d="m571.87 49.372v41.186" fill="none" stroke="#000" stroke-linejoin="bevel" stroke-width="1.5158"/>
	<path d="m651.76 66.416v-46.439" fill="none" stroke="#000" stroke-linejoin="bevel" stroke-width="1.5158"/>
	<path d="m704.38 14.942v46.351" fill="none" stroke="#000" stroke-linejoin="bevel" stroke-width="1.5158"/>
	<path d="m747.51 14.942v46.351" fill="none" stroke="#000" stroke-linejoin="bevel" stroke-width="1.5158"/>
	<path d="m811.02 42.486v42.907" fill="none" stroke="#000" stroke-linejoin="bevel" stroke-width="1.5158"/>
	<path d="m880.02 35.6v44.629" fill="none" stroke="#000" stroke-linejoin="bevel" stroke-width="1.5158"/>
	<path d="m923.15 35.6v44.629" fill="none" stroke="#000" stroke-linejoin="bevel" stroke-width="1.5158"/>
	<path d="m106.41 188.47v42.908" fill="none" stroke="#000" stroke-linejoin="bevel" stroke-width="1.5158"/>
	<path d="m195.1 195.35v41.186" fill="none" stroke="#000" stroke-linejoin="bevel" stroke-width="1.5158"/>
	<path d="m320.55 198.62v-42.995" fill="none" stroke="#000" stroke-linejoin="bevel" stroke-width="1.5158"/>
	<path d="m394.02 188.47v42.908" fill="none" stroke="#000" stroke-linejoin="bevel" stroke-width="1.5158"/>
	<path d="m450.17 188.47v42.908" fill="none" stroke="#000" stroke-linejoin="bevel" stroke-width="1.5158"/>
	<path d="m526.71 181.58v44.629" fill="none" stroke="#000" stroke-linejoin="bevel" stroke-width="1.5158"/>
	<path d="m653.81 188.47v42.908" fill="none" stroke="#000" stroke-linejoin="bevel" stroke-width="1.5158"/>
	<path d="m739.34 195.35v41.186" fill="none" stroke="#000" stroke-linejoin="bevel" stroke-width="1.5158"/>
	<path d="m812.45 198.62v-42.995" fill="none" stroke="#000" stroke-linejoin="bevel" stroke-width="1.5158"/>
	<path d="m852.8 188.47v42.908" fill="none" stroke="#000" stroke-linejoin="bevel" stroke-width="1.5158"/>
	<path d="m909.54 188.47v42.908" fill="none" stroke="#000" stroke-linejoin="bevel" stroke-width="1.5158"/>
	<path d="m106.41 334.45v42.908" fill="none" stroke="#000" stroke-linejoin="bevel" stroke-width="1.5158"/>
	<path d="m194.62 341.33v41.186" fill="none" stroke="#000" stroke-linejoin="bevel" stroke-width="1.5158"/>
	<path d="m327.16 334.45v42.908" fill="none" stroke="#000" stroke-linejoin="bevel" stroke-width="1.5158"/>
	<path d="m401.51 341.33v41.186" fill="none" stroke="#000" stroke-linejoin="bevel" stroke-width="1.5158"/>
	<path d="m492.26 344.61v-42.995" fill="none" stroke="#000" stroke-linejoin="bevel" stroke-width="1.5158"/>
	<path d="m641.33 341.33v41.186" fill="none" stroke="#000" stroke-linejoin="bevel" stroke-width="1.5158"/>
	<path d="m687.37 334.45v42.908" fill="none" stroke="#000" stroke-linejoin="bevel" stroke-width="1.5158"/>
	<path d="m149.83 63.72c-0.98971-1.8248-3.0817-2.8146-5.6208-2.8146-1.868 0-3.9083 0.55088-5.8964 1.6009-3.6329 1.9281-5.8358 5.1731-5.8358 7.9877 0 0.76606 0.16299 1.5407 0.55033 2.2551 0.99021 1.8162 3.0817 2.7544 5.6208 2.7544 1.8685 0 3.9085-0.49061 5.8964-1.5407 3.6329-1.9281 5.8364-5.1817 5.8364-7.9877 0-0.77467-0.16363-1.5407-0.55096-2.2551" stroke-width=".55092"/>
	<path d="m192.96 63.72c-0.9899-1.8248-3.0813-2.8146-5.621-2.8146-1.8676 0-3.9076 0.55088-5.8961 1.6009-3.6323 1.9281-5.836 5.1731-5.836 7.9877 0 0.76606 0.1638 1.5407 0.55116 2.2551 0.98969 1.8162 3.0817 2.7544 5.6208 2.7544 1.8677 0 3.9076-0.49061 5.8964-1.5407 3.632-1.9281 5.8358-5.1817 5.8358-7.9877 0-0.77467-0.16365-1.5407-0.55097-2.2551" stroke-width=".55092"/>
	<path d="m236.09 29.265c-0.98972-1.8161-3.0817-2.806-5.6208-2.806-1.8679 0-3.9081 0.55086-5.8963 1.5924-3.6326 1.9281-5.8359 5.1817-5.8359 7.9877 0 0.77466 0.16315 1.5493 0.5505 2.2638 0.9902 1.8248 3.0816 2.763 5.621 2.763 1.8682 0 3.9082-0.49925 5.8962-1.5407 3.6327-1.9367 5.8363-5.1903 5.8363-8.0049 0-0.76606-0.16364-1.5407-0.55096-2.2551m-2.3672 3.7442c-0.93801 0.93821-2.8148 2.0916-4.7944 3.202-1.9798 1.1018-3.9682 1.928-5.2854 2.2035-0.27524 0.06061-0.55048 0.11188-0.82599 0.11188-0.88655 0-1.5494-0.32707-1.9282-1.0501-0.17236-0.27546-0.27555-0.60253-0.27555-0.9382 0-0.60254 0.37881-1.3255 0.98966-1.9281 0.93851-0.9382 2.7549-2.0916 4.7343-3.1933 1.9888-1.1017 3.9682-1.9281 5.2941-2.2035 0.27556-0.0606 0.55086-0.1119 0.8261-0.1119 0.87803 0 1.5927 0.32706 1.98 1.0415 0.16347 0.27544 0.22353 0.61111 0.22353 0.93821 0 0.61111-0.3353 1.2653-0.93816 1.928" stroke-width=".55092"/>
	<path d="m325.48 36.151c-0.98989-1.8162-3.0814-2.806-5.6209-2.806-1.8677 0-3.9077 0.55088-5.8962 1.5923-3.6323 1.9281-5.836 5.1817-5.836 7.9877 0 0.77466 0.16381 1.5493 0.55115 2.2637 0.98971 1.8248 3.0814 2.763 5.6208 2.763 1.8676 0 3.9076-0.49926 5.8963-1.5407 3.6321-1.9367 5.8358-5.1903 5.8358-8.0049 0-0.76606-0.16365-1.5407-0.55097-2.2551m-2.367 3.7442c-0.93849 0.9382-2.8146 2.0916-4.7947 3.2019-1.9796 1.1017-3.9681 1.9281-5.2848 2.2035-0.27558 0.06061-0.55118 0.1119-0.82675 0.1119-0.88643 0-1.5494-0.32708-1.9281-1.0501-0.17199-0.27543-0.27535-0.60251-0.27535-0.93821 0-0.6025 0.37871-1.3255 0.99006-1.928 0.93801-0.93821 2.7542-2.0916 4.7342-3.1933 1.9882-1.1018 3.9681-1.928 5.2936-2.2035 0.27551-0.0606 0.55106-0.11188 0.82666-0.11188 0.87788 0 1.5921 0.32707 1.9794 1.0415 0.16376 0.27545 0.22405 0.61113 0.22405 0.93821 0 0.61113-0.33587 1.2653-0.93826 1.9281" stroke-width=".55092"/>
	<path d="m390.71 29.265c-0.98986-1.8161-3.0815-2.806-5.6208-2.806-1.8677 0-3.9077 0.55086-5.8963 1.5924-3.6323 1.9281-5.836 5.1817-5.836 7.9877 0 0.77466 0.16363 1.5493 0.55097 2.2638 0.98986 1.8248 3.0815 2.763 5.6208 2.763 1.8678 0 3.9077-0.49925 5.8963-1.5407 3.6323-1.9367 5.836-5.1903 5.836-8.0049 0-0.76606-0.16367-1.5407-0.55102-2.2551m-2.3669 3.7442c-0.9385 0.93821-2.8148 2.0916-4.7947 3.202-1.9795 1.1018-3.9681 1.928-5.285 2.2035-0.27537 0.06061-0.55097 0.11188-0.82657 0.11188-0.88644 0-1.5494-0.32707-1.9281-1.0501-0.17208-0.27546-0.27541-0.60253-0.27541-0.9382 0-0.60254 0.37871-1.3255 0.98999-1.9281 0.93811-0.9382 2.7544-2.0916 4.7342-3.1933 1.9883-1.1017 3.9681-1.9281 5.2936-2.2035 0.27548-0.0606 0.55106-0.1119 0.82655-0.1119 0.87799 0 1.5922 0.32706 1.9795 1.0415 0.16375 0.27544 0.22395 0.61111 0.22395 0.93821 0 0.61111-0.33579 1.2653-0.93815 1.928" stroke-width=".55092"/>
	<path d="m476.33 36.151c-0.98991-1.8162-3.0815-2.806-5.6208-2.806-1.8679 0-3.908 0.55088-5.8963 1.5923-3.6326 1.9281-5.8361 5.1817-5.8361 7.9877 0 0.77466 0.16347 1.5493 0.55083 2.2637 0.98996 1.8248 3.0816 2.763 5.6209 2.763 1.868 0 3.908-0.49926 5.8963-1.5407 3.6325-1.9367 5.8361-5.1903 5.8361-8.0049 0-0.76606-0.16352-1.5407-0.55086-2.2551m-2.3672 3.7442c-0.9382 0.9382-2.8147 2.0916-4.7944 3.2019-1.9798 1.1017-3.9681 1.9281-5.2853 2.2035-0.27536 0.06061-0.5508 0.1119-0.82626 0.1119-0.88657 0-1.5494-0.32708-1.9281-1.0501-0.17216-0.27543-0.27541-0.60251-0.27541-0.93821 0-0.6025 0.37875-1.3255 0.98974-1.928 0.93837-0.93821 2.7545-2.0916 4.7343-3.1933 1.9885-1.1018 3.9682-1.928 5.2938-2.2035 0.27544-0.0606 0.55085-0.11188 0.8263-0.11188 0.87796 0 1.5925 0.32707 1.9798 1.0415 0.16353 0.27545 0.22377 0.61113 0.22377 0.93821 0 0.61113-0.33567 1.2653-0.93824 1.9281" stroke-width=".55092"/>
	<path d="m545.34 43.063c-0.98989-1.8248-3.0816-2.8146-5.6209-2.8146-1.8678 0-3.9079 0.55088-5.8962 1.601-3.6325 1.9281-5.8361 5.1731-5.8361 7.9877 0 0.76606 0.16361 1.5407 0.55092 2.2551 0.98985 1.8162 3.0815 2.7544 5.6209 2.7544 1.8679 0 3.9079-0.49062 5.8962-1.5407 3.6325-1.9281 5.8361-5.1816 5.8361-7.9876 0-0.77467-0.16353-1.5407-0.5509-2.2551" stroke-width=".55092"/>
	<path d="m588.47 43.063c-0.98989-1.8248-3.0815-2.8146-5.6208-2.8146-1.868 0-3.908 0.55088-5.8963 1.601-3.6326 1.9281-5.8361 5.1731-5.8361 7.9877 0 0.76606 0.16345 1.5407 0.55085 2.2551 0.98996 1.8162 3.0816 2.7544 5.6209 2.7544 1.8678 0 3.9079-0.49062 5.8963-1.5407 3.6325-1.9281 5.836-5.1816 5.836-7.9876 0-0.77467-0.16361-1.5407-0.55091-2.2551" stroke-width=".55092"/>
	<path d="m651.98 63.695c-0.98989-1.8162-3.0816-2.806-5.6209-2.806-1.8679 0-3.908 0.55087-5.8962 1.5923-3.6326 1.9281-5.8361 5.1817-5.8361 7.9877 0 0.77466 0.16346 1.5493 0.55079 2.2637 0.98998 1.8248 3.0816 2.763 5.6208 2.763 1.8681 0 3.908-0.49927 5.8965-1.5407 3.6324-1.9367 5.8359-5.1903 5.8359-8.0049 0-0.76606-0.16354-1.5407-0.55084-2.2551m-2.3671 3.7442c-0.93823 0.93821-2.8147 2.0916-4.7945 3.2019-1.9798 1.1018-3.9681 1.9281-5.2852 2.2035-0.27544 0.06061-0.55085 0.1119-0.8263 0.1119-0.88664 0-1.5493-0.32707-1.9282-1.0501-0.1721-0.27542-0.27546-0.6025-0.27546-0.93819 0-0.60252 0.37876-1.3255 0.98987-1.9281 0.9383-0.93821 2.7545-2.0916 4.7343-3.1933 1.9884-1.1017 3.968-1.928 5.2938-2.2035 0.27554-0.0606 0.55085-0.11188 0.8263-0.11188 0.87786 0 1.5924 0.32707 1.9798 1.0415 0.16342 0.27543 0.22385 0.61113 0.22385 0.9382 0 0.61113-0.3358 1.2653-0.93828 1.9281" stroke-width=".55092"/>
	<path d="m720.98 8.6334c-0.99009-1.8248-3.0816-2.8146-5.6209-2.8146-1.868 0-3.9079 0.55087-5.8963 1.6009-3.6324 1.9281-5.8362 5.173-5.8362 7.9877 0 0.76604 0.16363 1.5407 0.55105 2.2551 0.98984 1.8161 3.0816 2.7543 5.6208 2.7543 1.8679 0 3.908-0.49057 5.8964-1.5407 3.6325-1.928 5.836-5.1816 5.836-7.9876 0-0.77466-0.16346-1.5407-0.55076-2.2551" stroke-width=".55092"/>
	<path d="m764.11 8.6334c-0.98985-1.8248-3.0816-2.8146-5.6209-2.8146-1.8678 0-3.9078 0.55087-5.8962 1.6009-3.6325 1.9281-5.836 5.173-5.836 7.9877 0 0.76604 0.16356 1.5407 0.55093 2.2551 0.98982 1.8161 3.0814 2.7543 5.6208 2.7543 1.8678 0 3.9078-0.49057 5.8962-1.5407 3.6326-1.928 5.8361-5.1816 5.8361-7.9876 0-0.77466-0.16372-1.5407-0.55092-2.2551" stroke-width=".55092"/>
	<path d="m827.62 36.151c-0.98983-1.8162-3.0816-2.806-5.6208-2.806-1.8677 0-3.9078 0.55088-5.8963 1.5923-3.6323 1.9281-5.836 5.1817-5.836 7.9877 0 0.77466 0.16363 1.5493 0.55098 2.2637 0.9899 1.8248 3.0814 2.763 5.6209 2.763 1.8678 0 3.9078-0.49926 5.8963-1.5407 3.6324-1.9367 5.8359-5.1903 5.8359-8.0049 0-0.76606-0.16361-1.5407-0.55097-2.2551m-2.367 3.7442c-0.93835 0.9382-2.8147 2.0916-4.7947 3.2019-1.9796 1.1017-3.9681 1.9281-5.285 2.2035-0.27552 0.06061-0.55097 0.1119-0.82643 0.1119-0.88655 0-1.5494-0.32708-1.9281-1.0501-0.17213-0.27543-0.27546-0.60251-0.27546-0.93821 0-0.6025 0.37869-1.3255 0.98998-1.928 0.93814-0.93821 2.7544-2.0916 4.7342-3.1933 1.9883-1.1018 3.9681-1.928 5.2937-2.2035 0.27556-0.0606 0.55095-0.11188 0.8265-0.11188 0.87785 0 1.5922 0.32707 1.9796 1.0415 0.16361 0.27545 0.22381 0.61113 0.22381 0.93821 0 0.61113-0.33571 1.2653-0.93825 1.9281" stroke-width=".55092"/>
	<path d="m896.62 29.291c-0.98983-1.8248-3.0816-2.8146-5.6208-2.8146-1.8679 0-3.9079 0.55088-5.8964 1.601-3.6324 1.9281-5.836 5.173-5.836 7.9877 0 0.76604 0.16348 1.5407 0.55085 2.2551 0.98993 1.8162 3.0816 2.7544 5.6208 2.7544 1.868 0 3.9078-0.4906 5.8962-1.5407 3.6326-1.928 5.8362-5.1816 5.8362-7.9876 0-0.77466-0.1636-1.5407-0.55086-2.2551" stroke-width=".55092"/>
	<path d="m939.75 29.291c-0.98998-1.8248-3.0814-2.8146-5.6208-2.8146-1.8678 0-3.908 0.55088-5.8963 1.601-3.6326 1.9281-5.8361 5.173-5.8361 7.9877 0 0.76604 0.16358 1.5407 0.55093 2.2551 0.98985 1.8162 3.0816 2.7544 5.6209 2.7544 1.8677 0 3.9079-0.4906 5.8963-1.5407 3.6325-1.928 5.8358-5.1816 5.8358-7.9876 0-0.77466-0.16339-1.5407-0.55078-2.2551" stroke-width=".55092"/>
	<path d="m123 182.13c-0.99026-1.8162-3.0817-2.806-5.6208-2.806-1.8685 0-3.9085 0.55036-5.8964 1.5921-3.6329 1.9281-5.8366 5.1819-5.8366 7.9879 0 0.77467 0.16372 1.5493 0.55108 2.2636 0.98968 1.8249 3.0817 2.763 5.6208 2.763 1.868 0 3.9083-0.4995 5.8964-1.5406 3.6329-1.9367 5.8358-5.1904 5.8358-8.005 0-0.76613-0.16294-1.5408-0.55027-2.255m-2.3676 3.7438c-0.93785 0.93848-2.8146 2.092-4.794 3.202-1.9802 1.1022-3.9682 1.9281-5.2855 2.2036-0.27559 0.0596-0.55105 0.11175-0.82594 0.11175-0.88717 0-1.5494-0.32675-1.9281-1.05-0.17235-0.2752-0.27559-0.6026-0.27559-0.93788 0-0.60272 0.37884-1.3258 0.98972-1.9281 0.93848-0.93851 2.7545-2.0919 4.7343-3.1934 1.9883-1.102 3.9682-1.9282 5.294-2.2037 0.27506-0.0596 0.55027-0.11175 0.82584-0.11175 0.87793 0 1.5929 0.32675 1.9802 1.0417 0.16294 0.27519 0.22352 0.61086 0.22352 0.9377 0 0.61163-0.33586 1.2654-0.93852 1.928" stroke-width=".55092"/>
	<path d="m211.69 189.02c-0.98981-1.8164-3.0817-2.806-5.6208-2.806-1.868 0-3.9082 0.55057-5.8964 1.592-3.6328 1.9282-5.8359 5.1821-5.8359 7.9881 0 0.77464 0.16306 1.5493 0.55044 2.2634 0.99017 1.8249 3.0817 2.7634 5.6209 2.7634 1.8684 0 3.9084-0.49952 5.8962-1.5408 3.6329-1.9367 5.8364-5.1906 5.8364-8.0051 0-0.76611-0.16356-1.5408-0.55088-2.2549m-2.3673 3.7439c-0.93794 0.93823-2.8148 2.0917-4.7944 3.2021-1.9799 1.1018-3.9681 1.9279-5.2855 2.2032-0.27526 0.0597-0.55048 0.11201-0.8259 0.11201-0.88662 0-1.5494-0.32699-1.9282-1.0499-0.17234-0.27532-0.27559-0.60288-0.27559-0.93821 0-0.60237 0.37882-1.3258 0.98971-1.9281 0.93847-0.93849 2.7549-2.0919 4.7343-3.1934 1.9888-1.1016 3.9682-1.9281 5.2941-2.2037 0.27553-0.0596 0.55077-0.11176 0.826-0.11176 0.87809 0 1.5928 0.32698 1.9801 1.0417 0.16341 0.27554 0.22356 0.61088 0.22356 0.93804 0 0.61129-0.33536 1.2654-0.93824 1.928" stroke-width=".55092"/>
	<path d="m320.76 195.9c-0.99006-1.8164-3.0815-2.806-5.6209-2.806-1.8681 0-3.9082 0.55091-5.8962 1.592-3.6327 1.9281-5.8362 5.182-5.8362 7.988 0 0.77464 0.16356 1.5493 0.55092 2.2634 0.98979 1.8249 3.0817 2.7634 5.6208 2.7634 1.868 0 3.9081-0.49924 5.8964-1.5408 3.6325-1.9366 5.836-5.1906 5.836-8.0052 0-0.76611-0.16335-1.5408-0.55071-2.2548m-2.3674 3.7442c-0.93805 0.9379-2.8146 2.0914-4.7942 3.2021-1.98 1.1015-3.9682 1.9279-5.2853 2.2031-0.27556 0.0597-0.55093 0.11214-0.82627 0.11214-0.88672 0-1.5494-0.32733-1.9281-1.0499-0.1721-0.27558-0.27532-0.60283-0.27532-0.93846 0-0.60234 0.37867-1.3258 0.98969-1.9281 0.93835-0.93827 2.7544-2.0915 4.7343-3.1934 1.9883-1.1014 3.9682-1.9281 5.2938-2.2036 0.27533-0.0596 0.55066-0.11178 0.82619-0.11178 0.87788 0 1.5925 0.32735 1.9798 1.0417 0.16337 0.27553 0.2239 0.61084 0.2239 0.93837 0 0.61092-0.33586 1.2653-0.93855 1.9279" stroke-width=".55092"/>
	<path d="m410.61 182.16c-0.98999-1.8249-3.0816-2.8145-5.6208-2.8145-1.868 0-3.9081 0.55064-5.8962 1.6005-3.6327 1.9281-5.8362 5.1735-5.8362 7.9881 0 0.76612 0.16346 1.5408 0.55081 2.2549 0.98997 1.8164 3.0816 2.7546 5.6209 2.7546 1.868 0 3.908-0.49069 5.8963-1.5406 3.6326-1.9281 5.8361-5.182 5.8361-7.988 0-0.77466-0.16348-1.5408-0.55082-2.2549" stroke-width=".55092"/>
	<path d="m466.77 182.16c-0.9899-1.8249-3.0817-2.8145-5.6208-2.8145-1.8679 0-3.908 0.55064-5.8963 1.6005-3.6325 1.9281-5.8361 5.1735-5.8361 7.9881 0 0.76612 0.16354 1.5408 0.5509 2.2549 0.98989 1.8164 3.0815 2.7546 5.6208 2.7546 1.8679 0 3.908-0.49069 5.8963-1.5406 3.6325-1.9281 5.8361-5.182 5.8361-7.988 0-0.77466-0.16357-1.5408-0.5509-2.2549" stroke-width=".55092"/>
	<path d="m543.3 175.25c-0.98989-1.8158-3.0816-2.806-5.6208-2.806-1.8679 0-3.908 0.55076-5.8962 1.5924-3.6325 1.9282-5.8362 5.1815-5.8362 7.9875 0 0.77465 0.16358 1.5493 0.5509 2.264 0.98995 1.8249 3.0816 2.7626 5.6209 2.7626 1.868 0 3.908-0.49923 5.8963-1.5406 3.6324-1.9367 5.8361-5.19 5.8361-8.0046 0-0.76614-0.16359-1.5408-0.55091-2.2554m-2.3671 3.7442c-0.93821 0.93847-2.8148 2.0919-4.7945 3.2019-1.9798 1.1021-3.9681 1.9281-5.2852 2.2037-0.27538 0.0597-0.55078 0.11175-0.82632 0.11175-0.88652 0-1.5493-0.32677-1.9281-1.0502-0.17211-0.27527-0.2754-0.60232-0.2754-0.93778 0-0.60293 0.37869-1.3256 0.98983-1.928 0.93827-0.93847 2.7545-2.0919 4.7343-3.1934 1.9885-1.1023 3.9681-1.9281 5.2937-2.2037 0.27551-0.0596 0.55095-0.1118 0.82635-0.1118 0.87796 0 1.5925 0.32677 1.9798 1.0414 0.16362 0.27511 0.22388 0.61118 0.22388 0.93794 0 0.61141-0.33578 1.2652-0.93831 1.9281" stroke-width=".55092"/>
	<path d="m670.4 182.16c-0.98985-1.8249-3.0815-2.8145-5.6208-2.8145-1.8678 0-3.9079 0.55064-5.8962 1.6005-3.6325 1.9281-5.8361 5.1735-5.8361 7.9881 0 0.76612 0.16354 1.5408 0.55092 2.2549 0.98994 1.8164 3.0815 2.7546 5.6208 2.7546 1.8679 0 3.9079-0.49069 5.8963-1.5406 3.6324-1.9281 5.8361-5.182 5.8361-7.988 0-0.77466-0.16367-1.5408-0.55098-2.2549" stroke-width=".55092"/>
	<path d="m755.93 189.04c-0.99008-1.8249-3.0817-2.8145-5.6208-2.8145-1.8679 0-3.9081 0.55101-5.8962 1.6008-3.6326 1.9279-5.8362 5.1732-5.8362 7.9878 0 0.76613 0.16365 1.5408 0.55086 2.2549 0.98991 1.8164 3.0815 2.7548 5.6209 2.7548 1.868 0 3.9079-0.49056 5.8964-1.5408 3.6324-1.9281 5.836-5.182 5.836-7.988 0-0.7747-0.16342-1.5407-0.55081-2.2549" stroke-width=".55092"/>
	<path d="m812.67 195.93c-0.98994-1.8249-3.0816-2.8145-5.6209-2.8145-1.868 0-3.908 0.55115-5.8962 1.6012-3.6326 1.9279-5.8361 5.1728-5.8361 7.9874 0 0.76614 0.16344 1.5408 0.55084 2.2552 0.98998 1.8161 3.0816 2.7546 5.6208 2.7546 1.8681 0 3.908-0.49057 5.8964-1.5408 3.6324-1.9281 5.836-5.1817 5.836-7.9878 0-0.77465-0.16353-1.5406-0.55083-2.2552" stroke-width=".55092"/>
	<path d="m869.4 182.16c-0.9898-1.8249-3.0815-2.8145-5.6207-2.8145-1.868 0-3.9079 0.55064-5.8963 1.6005-3.6326 1.9281-5.8361 5.1735-5.8361 7.9881 0 0.76612 0.16343 1.5408 0.55069 2.2549 0.99004 1.8164 3.0816 2.7546 5.621 2.7546 1.868 0 3.908-0.49069 5.8963-1.5406 3.6325-1.9281 5.8361-5.182 5.8361-7.988 0-0.77466-0.1636-1.5408-0.55095-2.2549" stroke-width=".55092"/>
	<path d="m926.14 182.16c-0.98981-1.8249-3.0816-2.8145-5.6208-2.8145-1.8678 0-3.9079 0.55064-5.8962 1.6005-3.6324 1.9281-5.836 5.1735-5.836 7.9881 0 0.76612 0.16338 1.5408 0.55084 2.2549 0.98998 1.8164 3.0814 2.7546 5.6208 2.7546 1.868 0 3.908-0.49069 5.8965-1.5406 3.6325-1.9281 5.8361-5.182 5.8361-7.988 0-0.77466-0.16377-1.5408-0.55115-2.2549" stroke-width=".55092"/>
	<path d="m123 328.11c-0.99026-1.8163-3.0817-2.806-5.6208-2.806-1.8685 0-3.9085 0.5507-5.8964 1.5921-3.6329 1.9282-5.8366 5.182-5.8366 7.988 0 0.77469 0.16372 1.5493 0.55108 2.2635 0.98968 1.8249 3.0817 2.7632 5.6208 2.7632 1.868 0 3.9083-0.49936 5.8964-1.5406 3.6329-1.9367 5.8358-5.1905 5.8358-8.005 0-0.76613-0.16294-1.5408-0.55027-2.255m-2.3676 3.744c-0.93785 0.93816-2.8146 2.0916-4.794 3.202-1.9802 1.1019-3.9682 1.928-5.2855 2.2034-0.27559 0.0597-0.55105 0.11199-0.82594 0.11199-0.88717 0-1.5494-0.32707-1.9281-1.05-0.17235-0.27532-0.27559-0.60265-0.27559-0.93812 0-0.60255 0.37884-1.3258 0.98972-1.9281 0.93848-0.93839 2.7545-2.0917 4.7343-3.1933 1.9883-1.1017 3.9682-1.9281 5.294-2.2037 0.27506-0.0596 0.55027-0.11174 0.82584-0.11174 0.87793 0 1.5929 0.32705 1.9802 1.0417 0.16294 0.27538 0.22352 0.61088 0.22352 0.93801 0 0.61132-0.33586 1.2654-0.93852 1.928" stroke-width=".55092"/>
	<path d="m211.22 335c-0.98971-1.8164-3.0817-2.806-5.6208-2.806-1.8677 0-3.9079 0.55079-5.8964 1.5921-3.6325 1.928-5.8358 5.1819-5.8358 7.9879 0 0.77467 0.16321 1.5493 0.55058 2.2634 0.99026 1.8248 3.0814 2.7633 5.6209 2.7633 1.8681 0 3.9081-0.49935 5.8962-1.5408 3.6327-1.9367 5.8364-5.1905 5.8364-8.0051 0-0.76608-0.16382-1.5408-0.55116-2.2549m-2.3671 3.7441c-0.93818 0.93805-2.8148 2.0915-4.7946 3.202-1.9796 1.1017-3.9681 1.928-5.2852 2.2034-0.27519 0.0596-0.55056 0.11194-0.82613 0.11194-0.88643 0-1.5494-0.32725-1.9282-1.05-0.17234-0.27543-0.27558-0.60268-0.27558-0.93833 0-0.60235 0.3788-1.3256 0.98975-1.9281 0.93844-0.93817 2.7548-2.0916 4.7343-3.1934 1.9888-1.1015 3.9682-1.9281 5.294-2.2035 0.27558-0.0597 0.55104-0.11196 0.82625-0.11196 0.87808 0 1.5925 0.32725 1.9799 1.0417 0.16365 0.27554 0.22354 0.61093 0.22354 0.93822 0 0.61111-0.33532 1.2653-0.938 1.928" stroke-width=".55092"/>
	<path d="m343.75 328.14c-0.98968-1.8249-3.0815-2.8145-5.6208-2.8145-1.8676 0-3.9078 0.55084-5.8964 1.6008-3.6323 1.928-5.8358 5.1732-5.8358 7.9877 0 0.76611 0.16344 1.5408 0.55079 2.255 0.99006 1.8163 3.0815 2.7547 5.6209 2.7547 1.8679 0 3.9079-0.49064 5.8963-1.5407 3.6324-1.9282 5.8362-5.182 5.8362-7.988 0-0.77466-0.16385-1.5407-0.55117-2.255" stroke-width=".55092"/>
	<path d="m418.11 335.02c-0.9899-1.8248-3.0815-2.8145-5.6208-2.8145-1.8678 0-3.9078 0.55108-5.8963 1.601-3.6324 1.9281-5.836 5.173-5.836 7.9875 0 0.76616 0.16364 1.5408 0.55098 2.2552 0.98988 1.8161 3.0815 2.7546 5.6208 2.7546 1.8678 0 3.9078-0.49055 5.8963-1.5408 3.6323-1.9281 5.8359-5.1817 5.8359-7.9877 0-0.77469-0.16363-1.5407-0.55096-2.2552" stroke-width=".55092"/>
	<path d="m492.47 341.89c-0.98988-1.8163-3.0816-2.806-5.6207-2.806-1.868 0-3.9081 0.55098-5.8964 1.5924-3.6325 1.928-5.8361 5.1817-5.8361 7.9877 0 0.77467 0.16362 1.5493 0.55097 2.2636 0.98978 1.8247 3.0816 2.7632 5.6208 2.7632 1.8678 0 3.9078-0.49924 5.8963-1.5408 3.6324-1.9367 5.8359-5.1903 5.8359-8.005 0-0.76598-0.16347-1.5407-0.55078-2.255m-2.3672 3.7443c-0.9382 0.93805-2.8146 2.0914-4.7945 3.202-1.9797 1.1015-3.968 1.928-5.285 2.2034-0.27554 0.0597-0.55096 0.11198-0.8264 0.11198-0.88663 0-1.5494-0.32729-1.9281-1.05-0.17214-0.27559-0.27544-0.60265-0.27544-0.93851 0-0.6023 0.37876-1.3254 0.98991-1.9281 0.93822-0.93802 2.7544-2.0914 4.7343-3.1933 1.9884-1.1015 3.9682-1.928 5.2938-2.2034 0.27536-0.0596 0.55089-0.11194 0.82637-0.11194 0.87793 0 1.5923 0.32728 1.9796 1.0415 0.16345 0.27559 0.22392 0.61115 0.22392 0.93842 0 0.6109-0.33573 1.2653-0.93842 1.928" stroke-width=".55092"/>
	<path d="m657.92 335.02c-0.98991-1.8248-3.0816-2.8145-5.6209-2.8145-1.8678 0-3.9078 0.55108-5.8962 1.601-3.6325 1.9281-5.8361 5.173-5.8361 7.9875 0 0.76616 0.16355 1.5408 0.55095 2.2552 0.9899 1.8161 3.0814 2.7546 5.6208 2.7546 1.8679 0 3.9079-0.49055 5.8963-1.5408 3.6323-1.9281 5.8359-5.1817 5.8359-7.9877 0-0.77469-0.16353-1.5407-0.55089-2.2552" stroke-width=".55092"/>
	<path d="m703.97 328.11c-0.98984-1.8163-3.0816-2.806-5.6208-2.806-1.8679 0-3.908 0.5507-5.8963 1.5921-3.6326 1.9282-5.836 5.182-5.836 7.988 0 0.77469 0.16343 1.5493 0.5507 2.2635 0.98997 1.8249 3.0816 2.7632 5.6208 2.7632 1.8681 0 3.908-0.49936 5.8964-1.5406 3.6325-1.9367 5.8361-5.1905 5.8361-8.005 0-0.76613-0.16355-1.5408-0.55092-2.255m-2.3672 3.744c-0.93814 0.93816-2.8148 2.0916-4.7944 3.202-1.9798 1.1019-3.9682 1.928-5.2852 2.2034-0.2754 0.0597-0.5508 0.11199-0.82635 0.11199-0.88653 0-1.5493-0.32707-1.9281-1.05-0.17213-0.27532-0.27551-0.60265-0.27551-0.93812 0-0.60255 0.37885-1.3258 0.9899-1.9281 0.93829-0.93839 2.7546-2.0917 4.7343-3.1933 1.9884-1.1017 3.968-1.9281 5.2938-2.2037 0.27546-0.0596 0.5509-0.11174 0.8263-0.11174 0.87791 0 1.5925 0.32705 1.9798 1.0417 0.16351 0.27538 0.22371 0.61088 0.22371 0.93801 0 0.61132-0.33555 1.2654-0.93822 1.928" stroke-width=".55092"/>
	<path d="m850.25 332c-7.6006 0-10.303 3.8561-10.303 7.4368 0 3.5807 2.7029 7.4367 10.303 7.4367s10.243-3.856 10.243-7.4367c0-3.5806-2.6426-7.4368-10.243-7.4368m-4.5706 5.0094c-0.0597-0.22397-0.0597-0.43904-0.0597-0.66266 0-0.43928 0.11192-0.87798 0.33584-1.2653 0.3788-0.55098 1.0414-0.93832 1.8678-1.102 0.7144-0.16337 1.1017-0.2753 2.5393-0.2753h0.0511c2.2033 0 2.918 2.04 3.529 4.1315l0.16364 0.55114c0.43878 1.4287 0.66274 2.6422 0.66274 3.5807 0 0.6627-0.1119 1.2652-0.33577 1.704-0.32697 0.6113-0.87812 0.99863-1.8163 1.2138-0.49911 0.11174-1.3254 0.16361-1.3254 0.16361-0.27553 0-0.4906 0.0596-0.71449 0.0596-1.7646 0-2.8664-0.66267-3.6325-3.0296-0.66278-2.0399-0.77466-2.6424-1.2652-5.0698" stroke-width=".55092"/>
	<path d="m45.922 58.031c-0.68002-2.9868-2.1347-5.0956-2.5651-5.6636-1.756-2.3584-3.9682-3.925-6.5505-4.6738-1.7129-0.48201-3.3656-0.55087-4.6998-0.44758-0.57677-3.3138-1.1277-6.5502-1.6269-9.5542 3.0041-3.3999 5.0011-6.5932 6.2578-8.9603 1.911-3.6237 2.5393-6.1456 2.5737-6.2575 0.94684-2.8748 1.1448-7.1183 0.53365-11.637-0.55089-4.1573-1.7043-7.8583-3.0041-9.6487-0.5595-0.78334-1.1448-1.1882-1.713-1.1882-0.67138 0-2.0572 0.68033-3.6497 2.2123-1.2653 1.2048-3.0644 3.3482-4.476 6.6621-1.6527 3.8906-1.7732 9.1152-1.5752 12.816 0.20656 4.011 0.81765 7.1441 0.82631 7.1699 0.0086 0.05166 0.15491 0.8779 0.39594 2.2895-0.12047 0.12913-0.25822 0.24967-0.39594 0.38737-0.56813 0.55088-1.2223 1.1706-1.9884 1.9366-0.47345 0.47342-0.99851 0.97265-1.5494 1.5063-4.6482 4.4844-11.698 11.276-11.698 21.828 0 2.5908 0.49928 5.0267 1.4805 7.2388 0.8694 1.9797 2.1348 3.7873 3.753 5.371 4.2608 4.166 10.097 5.9305 13.979 5.8444 1.6268-0.04266 3.0816-0.17216 4.3985-0.42174 1.0071 5.2935 1.6354 9.1668 1.6527 12.111 0.02556 3.5893-0.88661 5.7841-3.0299 7.3077-1.3428 0.95535-2.8922 1.4805-4.5966 1.5579-1.4288 0.069-2.6769-0.18939-3.4602-0.41318h-0.0086s-0.15497-0.05182-0.16357-0.15491c-0.0086-0.10332 0.18934-0.1291 0.18934-0.1291h0.01708c1.0588-0.24097 3.0213-0.921 4.3211-2.7371 0.98989-1.3944 1.4719-3.9422 0.45625-6.1112-0.61116-1.317-1.9884-2.9438-5.0872-3.1933-1.3772-0.11188-2.6253 0.17214-3.7271 0.83491-0.99848 0.59389-1.8248 1.4977-2.4016 2.5994-1.3514 2.5908-1.1018 5.7497 0.61976 7.8671 1.6354 1.9971 4.1747 3.2709 7.1702 3.5892 0.47344 0.05108 0.93823 0.06816 1.4031 0.06816 2.4446 0 4.8633-0.66287 6.8345-1.8766 2.0142-1.4201 3.1849-3.615 3.555-6.7137 0.30988-2.5564 0.09466-5.8186-0.6714-10.269-0.19801-1.1534-0.49924-2.8232-0.86077-4.889 3.1676-1.0587 5.4573-3.0298 7.5318-6.2576 1.8162-3.1589 2.3327-6.5244 1.5494-10.002m-18.851 14.444c-2.5565-0.67141-5.0011-2.0486-7.0669-3.9852-0.72304-0.67134-1.756-1.8678-2.5651-3.7356-0.74892-1.7473-1.119-3.6409-1.0846-5.612 0.03408-2.5908 0.75749-5.2505 2.1347-7.8844 1.6096-3.0728 4.1231-6.1198 7.4629-9.055 0.80053-0.70578 1.558-1.4116 2.2639-2.1174 0.42175 2.3498 0.87796 4.932 1.36 7.6175-2.1174 0.69719-4.7342 2.4359-6.4472 5.5518-1.9539 3.6151-1.8765 6.6621-1.4719 8.5816 0.51651 2.4531 1.911 4.5275 3.8132 5.6809 0.51649 0.30986 2.7889 1.4805 3.8046 1.162 0.20661-0.06062 0.35299-0.1894 0.43045-0.37015 0.28402-0.64555-0.28407-0.99845-1.1363-1.5235-0.33569-0.20657-0.70585-0.43897-1.1018-0.73162-1.8334-1.3686-2.634-3.8217-2.04-6.2404 0.31847-1.3169 1.0243-2.5133 2.04-3.4516 0.91241-0.85212 2.04-1.4547 3.3484-1.8076 1.1276 6.1973 2.2638 12.343 3.1677 16.948 0.0691 0.37872 0.14632 0.74881 0.21518 1.1189-2.4102 0.51644-4.8031 0.46483-7.1272-0.14631m6.2406-18.291c5.6983-0.25819 8.0482 3.8389 8.5389 6.4986 0.2582 1.403 0.2582 3.8475-0.59398 6.1715-0.64554 1.7473-1.997 3.9938-4.8289 5.13-0.03411-0.23241-0.07761-0.47343-0.12045-0.70583-0.85217-4.8373-1.9195-10.897-2.9955-17.094m-4.0371-39.086c0.98134-3.159 2.4877-4.9493 3.5895-5.9047 0.96408-0.83496 1.8679-1.2309 2.3757-1.2309 0.07762 0 0.14633 0.017193 0.19795 0.034421 0.25826 0.077452 0.5509 0.38732 0.80915 0.86933 1.2739 2.3585 0.86077 6.0596 0.12048 8.5041-0.89521 2.9782-2.5048 6.0682-7.351 11.362-0.094718-0.61113-0.18075-1.1878-0.26686-1.73-0.68861-4.562-0.50787-8.5729 0.52504-11.904" stroke-width=".55092"/>
	<path d="m45.922 204.01c-0.68002-2.9868-2.1347-5.0958-2.5651-5.664-1.756-2.3581-3.9682-3.9247-6.5505-4.6736-1.7129-0.48204-3.3656-0.55113-4.6998-0.44789-0.57677-3.3137-1.1277-6.5499-1.6269-9.554 3.0041-3.4001 5.0011-6.5934 6.2578-8.9602 1.911-3.6237 2.5393-6.1458 2.5737-6.2579 0.94684-2.8743 1.1448-7.1178 0.53365-11.637-0.55089-4.1573-1.7043-7.8581-3.0041-9.6488-0.5595-0.78336-1.1448-1.1881-1.713-1.1881-0.67138 0-2.0572 0.6803-3.6497 2.2124-1.2653 1.2046-3.0644 3.3484-4.476 6.6623-1.6527 3.8904-1.7732 9.1151-1.5752 12.816 0.20656 4.0115 0.81765 7.1443 0.82631 7.1699 0.0086 0.051 0.15491 0.87788 0.39594 2.2898-0.12047 0.12885-0.25822 0.24963-0.39594 0.38738-0.56813 0.55108-1.2223 1.1706-1.9884 1.9366-0.47345 0.4735-0.99851 0.97259-1.5494 1.5063-4.6482 4.4846-11.698 11.276-11.698 21.828 0 2.591 0.49928 5.0268 1.4805 7.239 0.8694 1.9793 2.1348 3.7871 3.753 5.3706 4.2608 4.166 10.097 5.9308 13.979 5.8449 1.6268-0.0423 3.0816-0.17224 4.3985-0.42221 1.0071 5.2938 1.6354 9.1671 1.6527 12.111 0.02556 3.5894-0.88661 5.7841-3.0299 7.3079-1.3428 0.95547-2.8922 1.4802-4.5966 1.5578-1.4288 0.0682-2.6769-0.18944-3.4602-0.41294h-0.0086s-0.15497-0.0511-0.16357-0.15531c-0.0086-0.10323 0.18934-0.12877 0.18934-0.12877h0.01708c1.0588-0.24139 3.0213-0.9214 4.3211-2.7373 0.98989-1.3945 1.4719-3.942 0.45625-6.1114-0.61116-1.3166-1.9884-2.9436-5.0872-3.1933-1.3772-0.11199-2.6253 0.17207-3.7271 0.83502-0.99848 0.59372-1.8248 1.4977-2.4016 2.5996-1.3514 2.5909-1.1018 5.7494 0.61976 7.8669 1.6354 1.9972 4.1747 3.271 7.1702 3.5892 0.47344 0.0511 0.93823 0.0682 1.4031 0.0682 2.4446 0 4.8633-0.6629 6.8345-1.8763 2.0142-1.4202 3.1849-3.6154 3.555-6.714 0.30988-2.556 0.09466-5.8185-0.6714-10.269-0.19801-1.1535-0.49924-2.823-0.86077-4.8887 3.1676-1.0586 5.4573-3.0302 7.5318-6.2577 1.8162-3.1592 2.3327-6.5244 1.5494-10.002m-18.851 14.443c-2.5565-0.67145-5.0011-2.0484-7.0669-3.9851-0.72304-0.67134-1.756-1.8682-2.5651-3.7359-0.74892-1.7472-1.119-3.6409-1.0846-5.612 0.03408-2.591 0.75749-5.2503 2.1347-7.884 1.6096-3.073 4.1231-6.1202 7.4629-9.0553 0.80052-0.70553 1.558-1.4115 2.2639-2.1175 0.42175 2.35 0.87796 4.9321 1.36 7.6178-2.1174 0.697-4.7342 2.4358-6.4472 5.5514-1.9539 3.6156-1.8765 6.6623-1.4719 8.5819 0.51651 2.4528 1.911 4.5277 3.8132 5.681 0.51649 0.30985 2.7889 1.4804 3.8046 1.162 0.20661-0.0597 0.35299-0.18937 0.43045-0.37017 0.28402-0.64587-0.28407-0.99862-1.1362-1.5238-0.33569-0.2064-0.70585-0.43882-1.1018-0.73148-1.8334-1.3688-2.634-3.8217-2.04-6.2404 0.31847-1.3169 1.0243-2.5134 2.04-3.4517 0.91241-0.85184 2.04-1.4547 3.3484-1.8072 1.1276 6.1973 2.2638 12.343 3.1677 16.948 0.0691 0.37877 0.14632 0.74866 0.21518 1.1185-2.4102 0.5169-4.8031 0.46489-7.1272-0.14597m6.2406-18.291c5.6983-0.25848 8.0482 3.8389 8.5389 6.4985 0.2582 1.403 0.2582 3.8477-0.59398 6.1717-0.64554 1.7472-1.997 3.9936-4.8289 5.13-0.03408-0.23276-0.07762-0.47353-0.12045-0.70606-0.85218-4.8373-1.9196-10.897-2.9955-17.094m-4.037-39.086c0.98134-3.1589 2.4877-4.9492 3.5895-5.9046 0.96408-0.83494 1.8679-1.2311 2.3757-1.2311 0.07762 0 0.14633 0.0172 0.19795 0.0343 0.25826 0.0768 0.5509 0.38731 0.80915 0.86934 1.2739 2.3581 0.86077 6.0591 0.12048 8.504-0.89521 2.9778-2.5048 6.0678-7.351 11.362-0.09472-0.61096-0.18074-1.1876-0.26686-1.7302-0.6886-4.5618-0.50787-8.5729 0.52504-11.904" stroke-width=".55092"/>
	<path d="m45.922 349.99c-0.68002-2.9868-2.1347-5.0958-2.5651-5.6639-1.756-2.3582-3.9682-3.9247-6.5505-4.6736-1.7129-0.48204-3.3656-0.55102-4.6998-0.4477-0.57677-3.3138-1.1277-6.55-1.6269-9.554 3.0041-3.4 5.0011-6.5933 6.2578-8.9605 1.911-3.6235 2.5393-6.1455 2.5737-6.2576 0.94684-2.8747 1.1448-7.1181 0.53365-11.637-0.55089-4.1573-1.7043-7.8582-3.0041-9.6484-0.5595-0.78342-1.1448-1.1885-1.713-1.1885-0.67138 0-2.0572 0.68036-3.6497 2.2124-1.2653 1.2049-3.0644 3.3484-4.476 6.6622-1.6527 3.8904-1.7732 9.1151-1.5752 12.816 0.20656 4.0113 0.81765 7.144 0.82631 7.17 0.0086 0.051 0.15491 0.87796 0.39594 2.2896-0.12047 0.12909-0.25822 0.24981-0.39594 0.38735-0.56813 0.55111-1.2223 1.1705-1.9884 1.9367-0.47345 0.47351-0.99851 0.97256-1.5494 1.5064-4.6482 4.4844-11.698 11.275-11.698 21.828 0 2.591 0.49928 5.0268 1.4805 7.239 0.8694 1.9795 2.1348 3.7871 3.753 5.3709 4.2608 4.166 10.097 5.9306 13.979 5.8446 1.6268-0.0425 3.0816-0.1723 4.3985-0.42192 1.0071 5.2934 1.6354 9.1668 1.6527 12.111 0.02556 3.5894-0.88661 5.7841-3.0299 7.3077-1.3428 0.9555-2.8922 1.4804-4.5966 1.5578-1.4288 0.0682-2.6769-0.18938-3.4602-0.41292h-0.0086s-0.15497-0.051-0.16357-0.15516c-0.0086-0.1033 0.18934-0.12894 0.18934-0.12894h0.01708c1.0588-0.24106 3.0213-0.92109 4.3211-2.7371 0.98989-1.3945 1.4719-3.9422 0.45625-6.1113-0.61116-1.3169-1.9884-2.9438-5.0872-3.1933-1.3772-0.11195-2.6253 0.17206-3.7271 0.83474-0.99848 0.59395-1.8248 1.4979-2.4016 2.5996-1.3514 2.5909-1.1018 5.7497 0.61976 7.867 1.6354 1.9971 4.1747 3.2708 7.1702 3.5893 0.47344 0.0511 0.93823 0.0682 1.4031 0.0682 2.4446 0 4.8633-0.66279 6.8345-1.8762 2.0142-1.4203 3.1849-3.6152 3.555-6.7139 0.30988-2.5562 0.09466-5.8186-0.6714-10.269-0.19801-1.1534-0.49924-2.8232-0.86077-4.8887 3.1676-1.0587 5.4573-3.0299 7.5318-6.2578 1.8162-3.1588 2.3327-6.5242 1.5494-10.002m-18.851 14.443c-2.5565-0.67145-5.0011-2.0484-7.0669-3.9851-0.72305-0.67143-1.756-1.868-2.5651-3.7359-0.74892-1.7473-1.119-3.6407-1.0846-5.612 0.03409-2.5908 0.75749-5.2504 2.1347-7.8841 1.6096-3.073 4.1231-6.1199 7.4629-9.0553 0.80053-0.70557 1.558-1.4113 2.2639-2.1173 0.42175 2.35 0.87796 4.932 1.36 7.6175-2.1174 0.6971-4.7342 2.4358-6.4472 5.5517-1.9539 3.6154-1.8765 6.6621-1.4719 8.5816 0.51651 2.4531 1.911 4.5277 3.8132 5.681 0.51649 0.30977 2.7889 1.4803 3.8046 1.162 0.20661-0.0597 0.35299-0.18933 0.43045-0.37021 0.28402-0.64572-0.28407-0.99843-1.1362-1.5237-0.33569-0.20647-0.70585-0.43874-1.1018-0.7314-1.8334-1.3686-2.634-3.8219-2.04-6.2406 0.31847-1.3167 1.0243-2.5133 2.04-3.4514 0.91241-0.85203 2.04-1.4547 3.3484-1.8074 1.1276 6.1973 2.2638 12.343 3.1677 16.948 0.06909 0.37881 0.14632 0.74883 0.21518 1.1188-2.4102 0.51664-4.8031 0.46476-7.1272-0.14627m6.2406-18.291c5.6983-0.25827 8.0482 3.839 8.5389 6.4985 0.2582 1.4032 0.2582 3.8478-0.59398 6.1717-0.64554 1.7472-1.997 3.9936-4.8289 5.13-0.03409-0.23249-0.07762-0.4735-0.12045-0.70586-0.85218-4.8373-1.9195-10.897-2.9955-17.094m-4.0371-39.086c0.98134-3.1587 2.4877-4.9492 3.5895-5.9046 0.96408-0.83473 1.8679-1.2307 2.3757-1.2307 0.07762 0 0.14633 0.0172 0.19795 0.0344 0.25826 0.0768 0.5509 0.38733 0.80915 0.86935 1.2739 2.3581 0.86077 6.0594 0.12048 8.5041-0.89521 2.978-2.5048 6.068-7.351 11.362-0.09472-0.61087-0.18075-1.1876-0.26686-1.7302-0.6886-4.5618-0.50786-8.5727 0.52504-11.904" stroke-width=".55092"/>
	<path d="m71.108 43.166c-0.32711-2.1433-1.6527-4.1832-4.4588-4.1832-2.7545 0-4.3555 1.7042-4.631 2.0399l0.2238-17.688c0-0.43898-0.32707-0.76606-0.77469-0.76606h-0.65418c-0.4476 0-0.77469 0.32708-0.77469 0.76606l0.27545 33.113c0 0.43898 0.32708 0.7661 0.77469 0.7661 0.10329 0 0.3271-0.05163 0.439-0.10329 0.21518-0.11194 3.796-1.8764 6.7743-5.2333 2.0917-2.3756 2.918-5.0698 2.918-7.3335 0-0.49064-0.05167-0.9296-0.11189-1.3772m-3.796 2.1519c0 0.8263-0.22377 3.3569-1.601 5.4571-0.93825 1.4288-2.8061 2.9179-3.8563 3.7442l0.16354-10.742c0.11191-0.49924 0.93825-2.0916 3.1418-2.0916 1.9884 0 2.1519 1.8678 2.1519 3.0298v0.60252" stroke-width=".55092"/>
	<path d="m71.108 189.15c-0.32711-2.1431-1.6527-4.183-4.4588-4.183-2.7545 0-4.3555 1.704-4.631 2.0399l0.2238-17.688c0-0.43849-0.32707-0.76615-0.77469-0.76615h-0.65418c-0.4476 0-0.77469 0.32766-0.77469 0.76615l0.27545 33.113c0 0.43938 0.32708 0.76618 0.77469 0.76618 0.10329 0 0.3271-0.0511 0.439-0.10325 0.21518-0.11178 3.796-1.8761 6.7743-5.2332 2.0917-2.3755 2.918-5.0694 2.918-7.3337 0-0.49053-0.05167-0.92906-0.11189-1.377m-3.796 2.1517c0 0.8267-0.22377 3.3571-1.601 5.4576-0.93825 1.4285-2.8061 2.9178-3.8563 3.7437l0.16354-10.742c0.11191-0.49923 0.93825-2.0912 3.1418-2.0912 1.9884 0 2.1519 1.8676 2.1519 3.0295v0.60236" stroke-width=".55092"/>
	<path d="m71.108 335.13c-0.32711-2.1431-1.6527-4.183-4.4588-4.183-2.7545 0-4.3555 1.7043-4.631 2.0399l0.2238-17.688c0-0.43866-0.32707-0.76603-0.77469-0.76603h-0.65418c-0.4476 0-0.77469 0.32737-0.77469 0.76603l0.27545 33.113c0 0.43911 0.32708 0.76607 0.77469 0.76607 0.10329 0 0.3271-0.0512 0.439-0.10335 0.21518-0.11187 3.796-1.8762 6.7743-5.2333 2.0917-2.3754 2.918-5.0694 2.918-7.3334 0-0.49066-0.05167-0.92938-0.11189-1.3773m-3.796 2.152c0 0.82638-0.22377 3.3568-1.601 5.4573-0.93825 1.4287-2.8061 2.9178-3.8563 3.744l0.16354-10.742c0.11191-0.49935 0.93825-2.0916 3.1418-2.0916 1.9884 0 2.1519 1.8676 2.1519 3.0296v0.60268" stroke-width=".55092"/>
	<path d="m103.01 36.177c-0.43847 1.205-1.5408 5.1731-4.2437 5.1731-3.5805 0-4.3552-2.2035-7.3249-2.2035-0.43894 0-0.88654 0.0606-1.4374 0.16354 0 0 1.3772-2.0916 7.2215-3.9077 5.8367-1.8161 7.3255-4.6824 7.3255-7.9877 0-2.3154-1.0417-6.8859-9.3651-6.8859-8.3151 0-9.8645 5.0094-9.8645 7.5487 0 2.2551 1.8765 4.0713 4.1317 4.0713 2.2638 0 4.0801-1.8161 4.0801-4.0713 0-1.5408-1.1018-3.2536-2.5306-3.8044-0.17216-0.05201-0.38739-0.32711-0.38739-0.60257 0-0.33567 0.27543-0.71441 1.2653-0.98987 0.27547-0.11186 1.0502-0.2754 1.8765-0.2754 0.76606 0 1.6526 0.16354 2.3068 0.60253 1.05 0.66274 1.4373 1.6526 1.4373 4.1316 0 6.4469-7.6606 7.8241-10.854 12.618 0 0-1.6527 2.3068-1.6527 4.8976 0 2.5908 1.3256 2.7544 1.9798 2.7544 0.88659 0 1.8248-0.71444 1.8248-1.7043 0-0.22376-0.06061-0.43894-0.17215-0.71438-0.3271-0.77469-0.43898-1.3772-0.43898-1.8248 0-0.16355 0-0.3271 0.06056-0.49066 0.05178-0.33566 0.49063-0.88653 1.8162-0.88653 1.5925 0 2.2036 1.8764 3.1935 3.3052 0.98986 1.4374 2.5306 2.3154 4.2951 2.3154 1.7644 0 4.1315-1.2653 5.1302-3.3052 0.98973-2.0399 2.2549-6.1715 2.2549-7.652 0-0.72305-0.43861-1.0501-0.93845-1.0501-0.38737 0-0.76581 0.22379-0.98975 0.77466" stroke-width=".55092"/>
	<path d="m103.01 63.17c-0.43847 1.205-1.5408 5.173-4.2437 5.173-3.5805 0-4.3552-2.2035-7.3249-2.2035-0.43894 0-0.88654 0.0606-1.4374 0.16353 0 0 1.3772-2.0916 7.2215-3.9077 5.8367-1.8162 7.3255-4.6824 7.3255-7.9876 0-2.3154-1.0417-6.8859-9.3651-6.8859-8.3151 0-9.8645 5.0095-9.8645 7.5487 0 2.2552 1.8765 4.0713 4.1317 4.0713 2.2638 0 4.0801-1.8162 4.0801-4.0713 0-1.5407-1.1018-3.2536-2.5306-3.8044-0.17216-0.05172-0.38739-0.32711-0.38739-0.60254 0-0.3357 0.27543-0.71443 1.2653-0.98986 0.27547-0.11189 1.0502-0.27546 1.8765-0.27546 0.76606 0 1.6526 0.16356 2.3068 0.60256 1.05 0.66276 1.4373 1.6526 1.4373 4.1315 0 6.4469-7.6606 7.8241-10.854 12.618 0 0-1.6527 2.3068-1.6527 4.8976 0 2.5908 1.3256 2.7544 1.9798 2.7544 0.88659 0 1.8248-0.71443 1.8248-1.7043 0-0.22376-0.06061-0.43892-0.17215-0.71436-0.3271-0.77469-0.43898-1.3772-0.43898-1.8248 0-0.16355 0-0.32711 0.06056-0.49067 0.05178-0.33565 0.49064-0.88652 1.8162-0.88652 1.5925 0 2.2036 1.8764 3.1935 3.3052 0.98986 1.4374 2.5307 2.3154 4.2951 2.3154 1.7644 0 4.1315-1.2653 5.1302-3.3052 0.98973-2.0399 2.2549-6.1715 2.2549-7.652 0-0.72303-0.43861-1.0501-0.93845-1.0501-0.38737 0-0.76581 0.22379-0.98975 0.77466" stroke-width=".55092"/>
	<path d="m550.74 186.62c0 1.5238 1.2309 2.7541 2.7545 2.7541 1.5236 0 2.7545-1.2304 2.7545-2.7541 0-1.5237-1.2309-2.7545-2.7545-2.7545-1.5236 0-2.7545 1.2307-2.7545 2.7545" stroke-width=".55092"/>
	<path d="m585.22 332.6c0 1.5237 1.2309 2.7544 2.7545 2.7544 1.5236 0 2.7545-1.2307 2.7545-2.7544 0-1.5236-1.2309-2.7543-2.7545-2.7543-1.5236 0-2.7545 1.2307-2.7545 2.7543" stroke-width=".55092"/>
</svg>
