<?xml version="1.0" encoding="utf-8"?>
<svg xmlns="http://www.w3.org/2000/svg" version="1.1" viewBox="0 0 395 171">
	<title>Three lines of indecipherable written glyphs.</title>
	<path d="m195.99 170.68c-0.84141-0.48994-0.6122-2.0184 0.67626-4.5098 0.65146-1.2597 1.3626-2.813 1.5803-3.4518 0.83789-2.4587 2.3732-8.5451 3.003-11.905 0.35962-1.9183 1.4957-11.592 1.4886-12.675-9e-3 -1.4028-0.30745-1.4369-3.0541-0.34937-1.4327 0.56732-2.7356 1.1321-2.8954 1.255-0.15973 0.12292-1.0093 0.45256-1.8878 0.73248-0.87859 0.2799-2.1416 0.84602-2.8066 1.258-1.3263 0.82159-1.471 1.2164-2.6086 7.1195-0.48942 2.5398-0.51495 2.588-2.4046 4.5566-1.0504 1.0943-2.1713 2.0262-2.4908 2.0709-0.85571 0.11981-3.2549-1.1414-3.8673-2.033-0.85669-1.2472-1.5645-2.9603-1.4001-3.3886 0.0838-0.21813-0.0968-0.713-0.40088-1.0996-0.41194-0.52362-0.50939-0.97223-0.38181-1.7582 0.10614-0.65403 0.0337-1.2208-0.19031-1.4908-0.31604-0.38071-0.46994-0.34444-1.2216 0.28789-0.473 0.39794-1.0823 0.72348-1.354 0.72348s-0.7518 0.17651-1.0669 0.39222c-0.31511 0.2157-0.96498 0.4861-1.4442 0.60086-0.47923 0.11475-1.4594 0.47948-2.1783 0.8105-0.71883 0.33105-1.6991 0.76663-2.1783 0.96797-0.47921 0.20135-2.6357 1.2208-4.7922 2.2655s-4.614 2.1688-5.4612 2.4981c-0.84716 0.32926-2.3465 1.0181-3.3318 1.5308-1.2939 0.67319-2.2779 0.96039-3.5424 1.0339-1.6362 0.0954-1.8223 0.0387-2.8419-0.86142-2.0012-1.7667-1.2634-2.8656 2.8681-4.2719 1.4566-0.49583 2.9322-0.90148 3.279-0.90148s1.1233-0.2513 1.7256-0.55849c0.60226-0.30715 1.92-0.77217 2.9284-1.0334 1.0084-0.26121 2.6469-0.85917 3.6412-1.3288 0.99429-0.46966 2.0006-0.85394 2.2362-0.85394 0.64151 0 3.2283-0.90135 3.7267-1.2985 0.23964-0.19099 1.4812-0.71975 2.7592-1.1751 1.2779-0.45529 2.8332-1.1956 3.4562-1.6452 0.62299-0.44955 1.3517-0.81735 1.6194-0.81735 1.0451 0 2.5597-2.5955 2.1914-3.7554-0.13869-0.43691 0.035-0.83421 0.62713-1.4348 0.45042-0.45678 1.0737-1.3152 1.385-1.9077 0.76465-1.455 1.6337-1.8243 4.3415-1.845 2.1225-0.0162 2.3527 0.0416 3.0869 0.77556 0.49788 0.49775 0.87423 1.2718 1.0105 2.0784 0.11948 0.70689 0.40361 1.5697 0.63146 1.9173 0.36973 0.56413 0.52953 0.60024 1.4881 0.33618 0.5906-0.16273 1.7995-0.66176 2.6864-1.109s2.3899-1.0378 3.34-1.3124c3.3703-0.97398 4.6779-1.7094 5.0514-2.841 0.18916-0.57301 0.25359-1.4867 0.14545-2.0629-0.2395-1.2764-0.87024-1.351-2.171-0.25673-1.1286 0.94936-1.7496 0.69326-2.1504-0.88675-0.47443-1.8706-0.0168-2.5282 2.455-3.5281 1.1949-0.48337 2.9857-1.3 3.9795-1.8147 2.0824-1.0785 3.2534-1.182 4.0031-0.35376 0.47446 0.52415 0.4941 0.77741 0.19708 2.5406-0.18144 1.0772-0.40498 2.7767-0.49677 3.7766-0.23478 2.5576 0.23693 2.6562 3.6384 0.7613 0.39936-0.22247 2.2945-1.2043 4.2113-2.1819 3.5631-1.8171 3.8399-2.0478 7.7923-6.4951 0.56772-0.63879 1.3202-1.775 1.6722-2.5248 0.89088-1.8978 1.5808-2.1678 4.9411-1.934 3.9761 0.27671 7.347-0.0163 9.3876-0.81568 2.5733-1.0082 3.6531-0.81848 3.6531 0.6418 0 0.58245-0.80374 1.5839-1.2712 1.5839-0.1149 0-0.91578 0.45209-1.7797 1.0046-1.4843 0.94921-2.2452 1.1519-5.3717 1.4312-0.75989 0.0678-1.175 0.32277-1.644 1.0095-0.34512 0.50528-1.3254 1.6417-2.1783 2.5255-0.85297 0.88373-1.6005 1.7494-1.6612 1.9238-0.0606 0.17439-0.28286 0.52731-0.49355 0.78431-0.63892 0.77934-3.1162 4.0931-4.043 5.4084-0.47921 0.68003-1.2825 1.8255-1.785 2.5454-0.50252 0.71995-1.1236 1.5512-1.3801 1.8473-1.7485 2.0179-2.4829 2.9855-2.9321 3.8633-0.28209 0.5511-0.70101 1.1901-0.93088 1.4199-0.76793 0.76772-1.3014 1.7594-1.1116 2.0664 0.19201 0.31061 1.2538 0.22677 4.2188-0.33322 1.4516-0.27414 1.788-0.49742 3.6856-2.4462l2.0882-2.1445h1.5757c1.7478 0 2.8027 0.60036 3.4679 1.9737 0.4374 0.90298 0.48759 0.90639 5.2175 0.3535 1.7108-0.19998 3.4387-0.28121 3.8399-0.18057 0.99847 0.25055 1.3822 1.0426 0.93822 1.9367-0.30017 0.60455-0.58277 0.71795-1.9417 0.77929-2.114 0.0956-6.1954 0.6492-6.5906 0.89428-0.17327 0.10744-0.53662 0.97933-0.80744 1.9375-0.80247 2.8393-1.5722 3.758-4.2896 5.1202-1.6832 0.84372-2.8396 1.2256-3.9048 1.2894-1.4424 0.0865-1.5533 0.0402-2.3666-0.98632-0.97794-1.2344-1.5362-3.0078-1.397-4.4377 0.15821-1.6244-0.20947-2.0371-1.615-1.8124-0.66334 0.10602-1.5406 0.36731-1.9493 0.58058-0.40882 0.21328-1.3481 0.38856-2.0873 0.38956-1.443 2e-3 -1.7166 0.2006-2.5148 1.8262-0.27374 0.5574-0.91718 1.5182-1.4299 2.1352-2.1878 2.6326-3.5054 4.4067-4.2832 5.7674-0.45643 0.79847-1.1687 1.8681-1.5829 2.377-0.41418 0.50885-1.3412 1.722-2.06 2.6958-0.71881 0.97386-1.7397 2.3107-2.2686 2.9707-0.52891 0.66005-1.1618 1.5871-1.4065 2.0601-0.24466 0.47303-0.72681 1.1772-1.0714 1.5648-2.1016 2.3638-2.1597 2.397-3.1679 1.8099zm31.231-20.706c1.8439-0.79767 3.9578-3.4251 3.5694-4.4367-0.18545-0.48315-2.5915-0.51443-4.4075-0.0573-1.0769 0.27107-1.4025 0.52171-1.8712 1.4402-0.80663 1.5808-0.72447 2.2094 0.37647 2.8805 1.1258 0.68626 1.1438 0.6876 2.3328 0.17323zm-41.859-1.7459c0.85409-0.75213 1.4004-1.7373 1.9732-3.5585 0.50358-1.601 0.22407-2.7116-0.6824-2.7116-1.5188 0-1.7144-1.8807-0.22852-2.1971 2.1666-0.46131 2.6613-1.1875 1.3806-2.0264-0.64831-0.42466-0.76653-0.42242-1.4536 0.0275-0.59917 0.3925-0.83333 0.41907-1.1773 0.13369-0.3564-0.29577-0.48298-0.21533-0.74485 0.47325-0.1735 0.45621-0.51283 1.0475-0.75404 1.314-0.34585 0.38202-0.36891 0.61471-0.10902 1.1001 0.2701 0.50461 0.1895 0.91163-0.44656 2.2558-0.63902 1.3504-0.74595 1.8951-0.60522 3.0829 0.16648 1.4051 1.0564 2.8162 1.763 2.7954 0.17186-6e-3 0.65996-0.3152 1.0848-0.68924zm23.396-4.0419c0.46646-0.53114 1.3622-1.8492 1.9905-2.9289 0.62835-1.0798 1.5641-2.6378 2.0794-3.4623 1.3289-2.1261 2.0804-3.784 1.836-4.0504-0.1153-0.12571-0.58473-0.0861-1.0432 0.0884-0.45844 0.17424-1.7312 0.35878-2.8282 0.41006-1.0972 0.0514-2.1293 0.22774-2.2937 0.39212-0.16443 0.1644-0.33801 1.7813-0.38574 3.5932-0.0479 1.8118-0.20613 4.1109-0.35201 5.109-0.14588 0.99809-0.17204 1.8147-0.0582 1.8147 0.11387 0 0.5887-0.43458 1.0552-0.96568zm21.285-0.77266c0.56074-0.35735 0.055-1.2714-0.77274-1.3959-0.58649-0.0884-2.1316 0.93613-2.1316 1.4132 0 0.35381 2.344 0.33989 2.9044-0.0175zm11.05 18.314c-0.17479-0.32649-0.23593-0.91974-0.13584-1.3184 0.18325-0.72988 5.6939-6.2557 6.2385-6.2557 0.16084 0 0.67736-0.81666 1.1478-1.8148 0.47045-0.99812 1.3226-2.3374 1.8936-2.9762 0.8505-0.9515 1.0085-1.3189 0.87422-2.0325-0.0903-0.47911-0.22293-1.2118-0.29504-1.6283-0.6025-3.4796-1.0638-4.5145-3.1367-7.0379-2.7603-3.36-3.9103-4.3768-5.6425-4.9883-1.6071-0.56744-1.6875-0.64325-1.7736-1.6731-0.0796-0.95183 6e-3 -1.1153 0.72609-1.39 0.59852-0.22826 1.1037-0.21674 1.8939 0.0433 1.1215 0.36895 1.5936 0.41566 5.1074 0.50539 1.9073 0.0489 2.1914 0.13385 2.8453 0.85261 0.39952 0.43917 1.7016 1.7785 2.8935 2.9761l2.1672 2.1777 0.30458 2.4681c0.16749 1.3574 0.37463 3.1551 0.46026 3.9949 0.25852 2.5347 1.1741 2.7924 3.8722 1.0896l1.1848-0.74771-0.0523-6.1683c-0.0557-6.5796 0.0284-7.048 1.3967-7.7801 0.36511-0.19537 1.2624-0.98721 1.994-1.7597 2.0675-2.1832 3.5411-1.7193 4.1898 1.3189 0.1746 0.81774 0.57139 2.0129 0.88181 2.656 0.81035 1.6787 0.40335 2.9351-1.4545 4.4902-0.78808 0.65967-1.8608 1.9428-2.3837 2.8513-0.84219 1.4632-0.95472 1.9158-0.98499 3.9621-0.0337 2.2835 0.53916 4.7073 1.2903 5.4582 0.18297 0.18295 0.33268 0.47792 0.33268 0.65553 0 0.86066 1.2476 2.8012 1.973 3.0689 0.43236 0.15957 1.4396 0.59942 2.2383 0.97752 1.5079 0.71381 4.772 1.7414 6.5348 2.0573 0.55911 0.10018 1.67 0.41838 2.4687 0.7071s2.1383 0.52446 2.9768 0.52387c1.9276-9.9e-4 2.8867 0.59528 3.1417 1.9543 0.31679 1.6882-0.15627 1.9761-2.911 1.7717-5.6297-0.41774-13.416 0.12214-16.957 1.1758-1.3127 0.39052-1.6074 0.40023-1.9145 0.063-0.6954-0.76332-1.6166-3.4184-1.6176-4.6624-5.8e-4 -0.70059-0.39539-2.2766-0.89573-3.5756-0.49206-1.2776-1.0303-2.8128-1.196-3.4117-0.19567-0.70704-0.47258-1.0888-0.78967-1.0888-0.54357 0-2.9263 1.6553-2.9263 2.033 0 0.13233-0.40569 0.611-0.90156 1.0637-1.7708 1.6167-2.7685 4.7643-1.9781 6.2409 0.50736 0.94771 0.0598 1.9256-1.2628 2.7605-0.67494 0.42595-1.3586 0.76293-1.5193 0.74885-1.2901-0.11302-5.9383-0.0656-7.7506 0.0789-2.0471 0.16335-2.2567 0.12915-2.5484-0.41561zm-109.44-9.0985c-0.60548-0.74291-0.876-2.4524-0.59194-3.7407 0.37078-1.6816 0.47982-7.2483 0.18126-9.2528-0.14595-0.97987-0.1108-2.477 0.091-3.8743 0.29521-2.0448 0.43907-2.3858 1.4091-3.3391 1.1446-1.125 1.22-1.1848 3.0956-2.4574 1.3782-0.93507 4.8172-2.2187 5.9684-2.2278 0.42888-3e-3 1.1118 0.12007 1.5175 0.27429 0.40571 0.15421 1.804 0.41407 3.1074 0.57742 1.3034 0.16339 2.5483 0.4452 2.7665 0.62626 0.95169 0.7896 0.091 1.9696-1.6777 2.2999-3.3454 0.62483-6.6668 2.9748-8.3996 5.943-1.6737 2.867-0.90575 3.4358 2.5836 1.9136 3.5063-1.5296 4.872-1.6867 8.3261-0.95783 1.9425 0.40988 6.5348-0.13743 6.5348-0.7788 0-0.11746-0.38258-0.57995-0.85023-1.0279-0.98995-0.94821-2.129-3.4116-1.9989-4.323 0.11733-0.82173 1.7559-1.6175 3.3676-1.6356 0.68452-8e-3 1.5341-0.20026 1.8879-0.428 0.35378-0.22772 1.1178-0.50066 1.6978-0.60653 0.89373-0.16315 1.1263-0.0903 1.5248 0.47864 0.99176 1.4155 0.40795 5.1483-1.045 6.6818-0.20491 0.21626-0.75533 0.95652-1.2231 1.645-1.2372 1.8209-2.2605 2.5678-3.8434 2.8051-0.76732 0.11504-2.2469 0.53948-3.288 0.94322-1.632 0.63288-2.4616 0.74925-6.0186 0.84443-4.2869 0.11468-8.1964 0.80785-9.5473 1.6928-0.79915 0.5235-1.4125 1.6275-1.6777 3.0196-0.1022 0.53628-0.63816 1.9409-1.1911 3.1214-0.84301 1.7997-1.1188 2.1463-1.708 2.1463-0.38645 0-0.83579-0.16333-0.99848-0.36294zm185.86-43.385c-0.84156-0.77993-1.3066-1.4685-2.6438-3.9142-0.31865-0.58277-1.0496-1.3502-1.6244-1.7053-0.57485-0.35515-1.382-1.1546-1.7937-1.7766-0.73161-1.1052-0.73803-1.1577-0.28297-2.3158 0.40185-1.0227 0.41018-1.2704 0.0608-1.8095-0.4512-0.69656-0.55409-1.4263-0.48765-3.4584 0.0345-1.0567 0.19899-1.501 0.69862-1.8874 0.35942-0.2779 2.136-1.9645 3.948-3.748 2.8049-2.7607 3.264-3.3391 3.0887-3.8911-0.11318-0.35663-1.073-1.5679-2.1328-2.6917-4.7704-5.0584-5.0568-5.2495-6.661-4.4435-1.881 0.94513-4.4147 0.71724-4.4147-0.39708 0-0.43903 2.5379-3.8415 3.2568-4.3662 0.11981-0.08748 0.30324-1.4615 0.40759-3.0533 0.16236-2.4771 0.12129-2.951-0.28511-3.2882-0.56717-0.47054-0.63738-2.3384-0.11183-2.9735 1.0099-1.2206 3.1738-1.8274 3.906-1.0954 0.20629 0.20622 0.26349 1.1301 0.1618 2.6132-0.14568 2.125-0.11603 2.2942 0.40156 2.2942 0.30735 0 2.2538-0.91339 4.3254-2.0298 2.0716-1.1164 3.8973-2.0318 4.057-2.0343 0.15974-0.0022 0.62851-0.1809 1.0417-0.39646 1.2092-0.63081 4.5406-1.145 6.3185-0.97514 0.99342 0.09493 2.54 0.56922 3.9103 1.1993 3.1413 1.4444 3.5287 1.3977 2.6704-0.32216-0.2396-0.48017-0.51721-1.6532-0.61688-2.6067-0.17278-1.6526-0.13779-1.7832 0.74823-2.792 0.60674-0.6908 1.289-1.1258 1.9646-1.2525 1.0104-0.18951 6.1565 0.48903 8.2146 1.0831 0.9427 0.27212 1.1933 0.18692 3.4518-1.1736 2.537-1.5282 2.4236-1.5086 4.997-0.86706 1.5686 0.39103 1.956 1.4362 2.0886 5.6342 0.0603 1.9164 0.0586 3.7068-4e-3 3.9788-0.35318 1.5249-2.7155 0.44894-3.8987-1.7758-0.97791-1.8387-1.8034-2.2637-3.2354-1.6655l-1.1012 0.45999 0.19036 2.1145c0.23859 2.6507-0.14506 4.1102-1.4527 5.5262-1.2134 1.3139-1.9324 1.3745-4.3752 0.36849-1.7528-0.72184-3.0496-0.93282-3.0496-0.49613 0 0.12941 0.3376 1.0767 0.75013 2.1051 1.3737 3.4238 1.0024 5.7346-1.7763 11.058-1.1701 2.2414-1.161 2.1985-0.49864 2.3716 0.40372 0.10546 0.38115 0.13971-0.10965 0.16647-0.33984 0.01853-0.75484 0.19866-0.92223 0.40028-0.59136 0.71234-2.9616 5.4093-2.9616 5.8688 0 0.78794 1.0639 2.5722 2.1185 3.5531 1.2392 1.1525 1.401 1.7231 0.86746 3.0604-0.43225 1.0834-1.5663 1.748-2.4051 1.4093-0.68409-0.27621-2.8368-1.719-3.0292-2.0303-0.0957-0.15453-0.66196-0.43763-1.2588-0.62919-1.5382-0.49367-2.1016-1.0818-2.1016-2.1935 0-1.2767-0.48798-2.3377-1.73-3.7618-0.56603-0.64894-1.4427-1.6616-1.9483-2.2503-0.835-0.97246-1.0541-1.0704-2.3939-1.0704-1.2808 0-1.58 0.11777-2.2757 0.89552-0.44048 0.49254-1.2266 1.7012-1.7469 2.6858-0.83566 1.5814-0.92748 1.9766-0.78682 3.3872 0.29722 2.9813 0.34929 3.3387 0.55858 3.8334 0.11507 0.27182 0.13057 0.62131 0.0344 0.7767-0.36014 0.58256 0.51925 1.7275 1.8232 2.3735 0.74229 0.36776 1.814 1.0387 2.3815 1.4909 1.0711 0.85345 4.5392 1.9784 6.0992 1.9784 1.9212 0 2.5653 1.045 1.4089 2.286-0.75854 0.81394-1.4321 1.0725-3.4573 1.3269-0.87858 0.11038-2.3162 0.40207-3.1948 0.64818-0.87854 0.24619-1.8588 0.4825-2.1783 0.52517-0.31947 0.0428-0.9263 0.16986-1.3485 0.28262-0.60817 0.1624-0.95185 0.0342-1.6547-0.61722zm13.338-19.841c0.12543-0.23954 0.73751-1.4808 1.3601-2.7584 0.62265-1.2776 1.9046-3.8255 2.8488-5.662l1.7168-3.3391 0.0976-3.3512c0.0854-2.9325 0.0294-3.4351-0.44636-4.0227l-0.54396-0.67152-2.1921 1.5723c-1.2056 0.86478-2.7029 1.8097-3.3273 2.0999-2.3122 1.0745-2.5841 1.7603-1.5772 3.9786 0.66042 1.4551 0.73886 3.0154 0.2359 4.6936-0.27477 0.91685-0.65457 1.3608-1.7426 2.037-1.5987 0.99351-1.8005 1.8033-0.71566 2.8712 0.37161 0.36578 1.107 1.2274 1.6343 1.9148 0.74884 0.97628 1.1189 1.2304 1.6912 1.1614 0.4029-0.04863 0.83518-0.28431 0.96066-0.52387zm-7.7842-6.4924c2.4405-1.0312 3.2936-3.3445 1.8198-4.9343-0.39172-0.42256-1.0191-0.7683-1.3941-0.7683-1.6076 0-1.8804-1.5623-0.38225-2.1881 0.54818-0.22897 1.0764-0.54524 1.1738-0.70282 0.0974-0.15757 0.72717-0.54827 1.3994-0.86824 1.2967-0.61713 1.4393-0.70204 4.0665-2.4207 0.92535-0.60532 2.4477-1.4893 3.3829-1.9645 0.93523-0.47512 1.7791-1.069 1.8754-1.3196 0.7291-1.8994-0.67619-2.5753-5.3434-2.5697-3.9296 0.0044-4.8889 0.2774-7.4668 2.1228-2.9522 2.1135-5.6934 3.7002-7.3324 4.2445-0.82868 0.27518-1.5728 0.67251-1.6536 0.88295-0.20045 0.52227 0.37651 1.5572 1.4619 2.6225 1.2296 1.2067 3.3978 3.8209 4.0663 4.9026 0.96539 1.5622 2.5592 3.3558 2.9819 3.3558 0.22549 0 0.83054-0.17769 1.3446-0.39488zm20.843-15.947c1.2022-0.94713 1.7459-2.4692 1.193-3.3403-0.36659-0.57755-3.5298 1.5638-3.5298 2.3894 0 1.2006 1.332 1.7425 2.3368 0.95088zm-3.1312-3.3936c2.2822-1.2941 3.1917-2.2319 2.8265-2.9142-0.35197-0.65748-1.9014-1.0023-3.5253-0.78458-2.2236 0.29818-2.8835 1.7552-1.629 3.5973 0.35941 0.5278 0.68811 0.96055 0.73048 0.96164 0.0424 0.0011 0.76118-0.386 1.5974-0.8602zm-113.5 45.179c-1.7702-1.1969-2.328-1.8221-2.5836-2.8957-0.20394-0.85647 0.19333-1.6418 0.83055-1.6418 0.19268 0 0.95983 0.40363 1.7048 0.89696 1.186 0.78534 1.5084 0.87137 2.5911 0.69111 0.6801-0.11323 1.694-0.43211 2.2531-0.70865 0.55911-0.27652 1.6521-0.68555 2.4288-0.90887 1.3898-0.39959 2.7991-1.4703 2.7991-2.1266 0-0.18407-1.2382-1.5353-2.7515-3.0027-1.5133-1.4674-3.0676-3.1609-3.454-3.7633-1.2274-1.9136-1.862-2.428-2.7389-2.2203-1.5811 0.37449-2.5858 0.93154-5.1028 2.8294-3.2887 2.4798-3.4643 2.5694-4.3621 2.2282-0.68486-0.26032-0.73193-0.40991-0.75375-2.3955-0.013-1.1648-0.033-2.4147-0.045-2.7774-0.0403-1.2266 0.5186-1.5181 2.9108-1.5181 2.372 0 4.1558-0.63931 4.337-1.5544 0.0514-0.25877-0.30817-1.2601-0.79871-2.2251-0.49052-0.96503-0.89186-1.8895-0.89186-2.0543 0-0.16481-0.32632-0.98919-0.72513-1.8319-0.3988-0.84277-0.78687-2.1086-0.86238-2.813-0.0755-0.70439-0.26367-2.2588-0.41809-3.4542-0.25525-1.9763-0.22556-2.2661 0.32719-3.1939 0.33431-0.56124 1.0051-1.4451 1.4906-1.9641 0.79684-0.85189 1.0443-0.94366 2.5446-0.94366 0.91407 0 1.8656-0.07813 2.1146-0.17364 0.58029-0.22262 2.3487-2.6788 2.9299-4.0694 0.67591-1.6173 3.703-4.3705 6.0809-5.5306 1.131-0.55184 2.5792-1.2836 3.2181-1.6262 0.65587-0.35162 1.8904-0.67569 2.835-0.74418 1.4203-0.10294 1.9472 0.01208 3.4852 0.76132 3.3707 1.6419 4.112 2.7005 4.1075 5.8658-3e-3 2.0702-0.0638 2.2708-1.2376 4.065-0.67903 1.038-1.8963 2.5196-2.7051 3.2925-1.3614 1.3009-1.5488 1.3905-2.5256 1.2074-2.6282-0.49253-3.5238-1.3493-3.5238-3.3711 0-0.62952 0.33693-1.2062 1.2343-2.1128 0.67889-0.68579 1.5364-1.4071 1.9055-1.6029 0.90221-0.47862 0.74394-1.5229-0.28545-1.8833-2.0075-0.70284-6.6791 2.672-8.3248 6.014-1.1884 2.4135-2.0809 4.9948-2.0809 6.0188 0 1.1486-0.88917 2.1448-1.688 1.8914-0.34953-0.11089-0.63546-0.32311-0.63546-0.47158 0-0.50855-2.1002-2.5945-2.6122-2.5945-0.83891 0-1.1226 0.63497-1.1704 2.6198-0.0537 2.2239 0.30408 4.2398 1.1056 6.2318 0.51776 1.2869 0.70501 1.473 1.6877 1.6771 1.5247 0.31669 2.1507 0.96214 2.1526 2.2195 2e-3 1.775 0.51258 3.007 2.0081 4.8524 1.374 1.6956 1.5084 1.7827 2.9651 1.9226 1.5805 0.15185 1.6529 0.20527 3.4079 2.5129 0.37743 0.49619 0.90379 0.90221 1.1697 0.90221 0.6427 0 1.8255-0.84412 1.6288-1.1624-0.0856-0.13835 0.29714-0.59677 0.85043-1.0187 1.1908-0.90799 2.643-3.1042 2.9164-4.4103 0.13662-0.65274 0.0126-1.3409-0.41737-2.3123-0.9045-2.0442-1.2868-2.3385-3.5285-2.7166-3.1295-0.52772-3.5111 0.11087-1.9986 3.3449 0.90979 1.9454 1.0502 2.6136 0.60706 2.8874-0.52723 0.32574-1.0655-0.17643-2.2445-2.0941-2.2313-3.6293-2.3384-6.7518-0.26537-7.7353 0.53571-0.25415 1.284-0.46209 1.6629-0.46209 0.37884 0 1.7071-0.39198 2.9516-0.87107 3.258-1.2542 3.6616-1.1961 5.5481 0.79813 1.5271 1.6143 1.5853 1.7361 1.7693 3.7021 0.1291 1.3792 0.0556 2.593-0.22899 3.775-0.23063 0.95819-0.3864 2.31-0.34619 3.0041 0.0444 0.76568-0.14996 1.7662-0.49416 2.544-0.31196 0.7051-0.48976 1.4073-0.39508 1.5605 0.37934 0.61362-0.68518 1.9345-1.8371 2.2795-0.63408 0.18992-1.4369 0.57528-1.7841 0.85636l-0.63133 0.51107 1.2442 1.0101c1.7315 1.4057 3.9787 2.6073 4.8732 2.6058 0.41375-5.7e-4 1.3883-0.32377 2.1656-0.71802 2.0426-1.036 3.1896-0.2784 2.4045 1.5882-0.33918 0.80639-2.1179 2.0346-2.9465 2.0346-0.17208 0-0.82556 0.26133-1.4522 0.58072s-1.6409 0.58072-2.254 0.58072c-1.0984 0-1.6819-0.38537-6.3554-4.1976-1.1075-0.90339-2.4093-0.7097-4.6054 0.68519-0.23962 0.15222-1.6119 0.62799-3.0496 1.0574-1.4376 0.42929-2.8996 0.95887-3.2489 1.1768-1.4799 0.9236-2.7466 1.5686-3.0808 1.5686-0.19695 0-1.0098-0.44066-1.8064-0.97929zm-135.87-3.3161c-0.26946-0.29769-0.48993-0.70914-0.48993-0.91436 0-0.66063 1.2198-2.5671 1.8114-2.831 0.5717-0.25506 1.3707-2.0585 1.379-3.1126 0.0022-0.30538 0.19182-1.22 0.42092-2.0325 0.85289-3.0249 2.2036-10.921 2.1994-12.857-2e-3 -1.187-0.89633-1.841-2.4627-1.8023-2.5117 0.0621-2.5634 0.11761-2.9597 3.1759-0.19584 1.5111-0.36332 3.7373-0.37218 4.9471-0.01405 1.923-0.10209 2.2804-0.6998 2.8418-0.38297 0.35968-1.3092 0.74813-2.1057 0.88312-2.0263 0.34343-2.819 0.72218-3.6986 1.7672-0.85759 1.0189-1.0117 2.3468-0.3373 2.9063 0.96496 0.8006 0.29051 3.5658-1.2405 5.0861-1.1435 1.1355-3.0185 2.1558-3.9814 2.1664-0.31617 3e-3 -1.1943-0.41618-1.9514-0.93268-1.6422-1.1204-2.0452-2.3623-1.6423-5.0622 0.21344-1.4303 0.41878-1.8407 1.3225-2.6433 1.3458-1.1952 1.1332-1.4537-2.0914-2.5434-3.6934-1.2481-4.0872-1.9085-2.1783-3.653 1.1213-1.0247 1.562-2.2902 0.79752-2.2902-0.49523 0-3.0376 2.0712-3.2077 2.6132-0.95223 3.0344-1.3987 5.2744-1.2883 6.4632 0.10978 1.1813 0.02338 1.4869-0.59491 2.105-0.97903 0.97879-2.9014 1.0148-3.7289 0.0697-0.97981-1.1189-1.3558-2.1429-1.1641-3.1703 0.64128-3.436 0.83718-5.0485 0.90189-7.4229 0.0403-1.4786 0.22247-2.861 0.40624-3.0823 0.24799-0.29875 1.2404-0.40777 3.8815-0.42641 4.1049-0.02899 4.4398-0.20175 3.9348-2.0299-0.16408-0.59392-0.21397-1.978-0.11192-3.1043 0.10132-1.1179 0.26496-2.9172 0.36368-3.9986 0.13972-1.5304 0.08243-2.0773-0.25858-2.468-1.6663-1.9095-2.5702-7.3841-1.4479-8.7697 0.78976-0.97504 1.8892-0.61026 3.0277 1.0046 0.56609 0.8029 1.2046 1.3508 1.7011 1.4598 0.43722 0.09603 1.2983 0.55542 1.9135 1.0209 0.76502 0.57885 1.4629 0.84895 2.2077 0.85448 0.59903 0.0044 1.0891 0.15254 1.0891 0.3291 0 0.17658 0.32675 0.70924 0.72609 1.1837 0.92691 1.1013 0.9126 1.4552-0.10603 2.6227-0.55767 0.63916-0.98486 1.6242-1.2951 2.9863-0.64949 2.8517-0.99115 5.6061-0.74481 6.0046 0.15285 0.24725 0.81645 0.15984 2.4842-0.32726 1.2516-0.36554 2.3998-0.77987 2.5516-0.92072 0.15176-0.14085 0.50868-0.25609 0.79317-0.25609 0.32062 0 0.59259-0.30011 0.71545-0.78948 0.18597-0.74077 0.01559-1.3799-1.0763-4.0381-0.3213-0.78221-0.30022-1.0609 0.15242-2.0145 0.99816-2.1029 2.4987-3.1617 4.0643-2.8681 0.79567 0.14923 1.1891 0.0734 1.614-0.311 0.49061-0.44387 0.67729-0.46052 1.4723-0.1313 1.0268 0.42518 1.0279 0.46356 0.13234 4.5791-0.25386 1.1666-0.38524 2.2446-0.29198 2.3955 0.3886 0.62859 1.6291 0.2333 2.7839-0.88713 0.65841-0.63878 1.3178-1.1614 1.4652-1.1614 0.42625 0 3.4375-3.202 3.4375-3.6552 0-0.4721 0.46118-0.54795 0.72608-0.11942 0.0987 0.1597 9e-3 0.29864-0.2007 0.30876-0.20908 0.01-0.0901 0.13514 0.26461 0.27779 0.85382 0.34347 1.1 1.4647 0.72287 3.2917-0.30098 1.458-0.71611 4.7279-1.1757 9.2604-0.12547 1.2377-0.21999 2.2486-0.21005 2.2465 0.01-0.0022 0.86646-0.26955 1.9033-0.59443 2.296-0.71938 3.8552-0.54748 5.0388 0.55549 0.88015 0.82024 2.5153 4.1016 2.5153 5.0476 0 1.8212-2.1186 3.7058-4.1661 3.7058-0.80611 0-1.2991-0.24886-2.2114-1.1164-1.0402-0.98931-1.174-1.2689-1.174-2.4544 0-0.73585 0.15329-1.6742 0.34066-2.0853 0.42983-0.9431-3e-3 -1.46-1.0109-1.2072-1.2588 0.31584-1.762 1.9114-1.549 4.9115 0.10092 1.4214 0.39458 3.029 0.65254 3.5725 0.61903 1.3042 0.33169 2.355-0.81271 2.9719-0.49852 0.26875-1.154 0.72401-1.4567 1.0117-0.95501 0.9077-4.6362 3.6872-4.8833 3.6872-0.13016 0-0.41898 0.0698-0.6418 0.15542-0.22281 0.0856-0.6256-0.0883-0.89506-0.38581zm-9.2096-11.788c2.5931-1.7833 2.9828-2.1815 3.2271-3.2981 0.131-0.59895 0.36917-1.677 0.52925-2.3956 0.16009-0.71865 0.29677-1.9273 0.30372-2.6858 0.01163-1.2643-0.04525-1.3792-0.68172-1.3792-0.3819 0-1.2641 0.25845-1.9605 0.57434-0.69633 0.31588-1.6314 0.57721-2.078 0.58071-1.0943 0.0089-2.2377 1.1866-2.2377 2.3053 0 0.48044-0.26139 1.5365-0.58087 2.3468-0.67082 1.7014-0.71691 2.4727-0.20783 3.4786 0.32682 0.64575 1.4391 1.442 2.0301 1.4532 0.12366 2e-3 0.86906-0.43876 1.6565-0.98026zm54.189 9.6034-0.83524-1.5436 0.53014-2.0133c0.70891-2.6921 1.1579-3.5271 2.2639-4.2103 0.67824-0.41896 1.2153-0.52795 1.9851-0.4029 0.92358 0.15005 1.127 0.0693 1.6298-0.64683 0.31599-0.45004 0.74575-1.6925 0.95504-2.761 0.47516-2.4257 0.31325-2.6609-2.2306-3.241-2.3834-0.54352-3.8827-1.5744-4.8358-3.3251-0.76477-1.4048-1.3501-2.0175-3.0814-3.2256-0.95002-0.66292-1.005-0.66918-1.3796-0.15705-0.21454 0.29336-0.38949 1.1944-0.38875 2.0023 9.9e-4 1.339-0.62939 5.3505-1.1205 7.128-0.24606 0.89054-1.1783 1.1187-1.6934 0.41444-0.21023-0.28744-0.38225-0.97219-0.38225-1.5217 0-1.2363-0.92385-2.7816-2.0663-3.4563-1.0247-0.60515-1.2932-1.4426-0.88178-2.7497 0.52202-1.6582 0.525-2.8992 8e-3 -3.2255-0.69502-0.43853-3.0543 0.3051-4.2232 1.3311-1.7479 1.5342-2.7562 5.0925-2.3017 8.1224 0.36895 2.4596 2.5273 4.8966 5.62 6.3454 1.3178 0.61739 2.2646 1.7414 2.0149 2.3919-0.2212 0.57625-3.1799 0.84315-5.1188 0.46183-1.576-0.30999-1.7189-0.28554-3.4387 0.58819-1.9656 0.99853-2.7475 0.91086-3.1322-0.35117-0.10955-0.35948-0.40083-0.88309-0.64717-1.1635-0.24638-0.28045-0.36839-0.58943-0.27116-0.68664 0.0975-0.0975-0.15513-1.0437-0.56088-2.1033-0.6149-1.606-0.74532-2.4676-0.78363-5.1777-0.032-2.2671 0.0637-3.3612 0.31706-3.615 0.19968-0.2001 0.36305-0.68646 0.36305-1.0808 0-0.90581 1.5206-3.6581 2.7178-4.9191 1.4558-1.5335 5.323-2.9533 8.0702-2.963 0.6958-0.0022 1.4433-0.11732 1.6611-0.25528 0.48358-0.30631 0.90664-3.7572 1.0669-8.7027 0.0978-3.0164 0.19908-3.6536 0.63366-3.9832 1.1137-0.84461 1.653-0.46061 2.7635 1.9676 0.64326 1.4066 0.97226 1.7623 2.2103 2.3895 0.81807 0.41443 1.5405 1.0075 1.6509 1.3554 0.10803 0.34018 0.11444 2.0088 0.0146 3.708-0.16823 2.8561-0.13627 3.1429 0.42303 3.7961l0.60501 0.7065 1.6027-0.85168c0.88151-0.46843 2.1702-1.4397 2.8638-2.1583 4.3186-4.4747 3.9974-3.9977 3.7936-5.6347-0.10129-0.8135-0.19769-2.7615-0.21423-4.3288-0.0343-3.2557-0.0331-3.2533-2.7463-5.353-4.2066-3.2555-4.7471-3.739-4.9499-4.4279-0.28571-0.97043-0.16057-1.4702 0.56339-2.2503 0.8154-0.87855 2.3595-0.85337 4.4538 0.07256 1.9852 0.87769 2.9747 0.9098 4.4739 0.14518 0.62622-0.31939 1.3196-0.58072 1.5408-0.58072 0.70837 0 1.4474 1.0781 1.2575 1.8345-0.0962 0.38357 0.16265 1.987 0.57631 3.5686 0.63799 2.4394 0.72277 3.2296 0.56277 5.245-0.14743 1.8569-0.0864 2.6146 0.28123 3.4843 0.25828 0.61127 0.49301 1.8706 0.52158 2.7985l0.0521 1.6871-2.3717 2.2327c-1.502 1.4139-2.4867 2.5933-2.6852 3.216-0.40284 1.2634-1.0696 1.7543-2.3979 1.7659-1.207 0.01097-3.968 1.285-4.2231 1.9494-0.10023 0.26096 0.12724 0.69288 0.56029 1.0642 0.40091 0.34378 0.99727 1.0223 1.3253 1.5078 0.61469 0.90982 1.2109 1.1306 5.0968 1.8873 1.1178 0.21766 2.0037 0.60645 2.6042 1.1429l0.91012 0.81299-0.41725 2.8635c-0.44965 3.0863-0.44355 7.326 0.0113 7.7806 0.5062 0.50608 0.29394 1.9242-0.49489 3.3063-1.1588 2.0303-1.5346 2.3746-2.5927 2.3746-0.52491 0-1.0446 0.14607-1.155 0.32453-0.12735 0.20602-0.67133 0.2601-1.4892 0.14804-0.87585-0.12003-1.5566-0.038-2.1255 0.25612-0.46036 0.23802-1.2075 0.43269-1.6603 0.43269-0.69614 0-0.95233-0.2384-1.6585-1.5436zm116.59-2.9356c0-0.26938 0.24832-0.45686 0.6051-0.45686 0.70779 0 0.60775 0.67852-0.12088 0.81979-0.28661 0.0556-0.48422-0.0927-0.48422-0.36293zm11.394 0.21989c-0.20306-0.0817-0.56881-0.53445-0.81281-1.0062-0.24402-0.47175-0.83921-1.0982-1.3227-1.3921-0.72779-0.44247-1.0274-0.47839-1.7416-0.20891-0.70043 0.26431-0.91383 0.24438-1.1354-0.10603-0.36124-0.57113-0.35436-2.0903 0.0139-3.0583 0.16256-0.42746 0.34281-3.8658 0.40047-7.6408l0.10494-6.8636 0.93642-2.1777c0.51504-1.1977 1.2125-2.4774 1.55-2.8438 0.33748-0.36636 1.0844-1.477 1.66-2.468 1.1324-1.9501 1.0225-1.9051 3.911-1.6028 0.88146 0.09231 1.0135 0.42014 0.58686 1.4579-0.1531 0.37239 0.13112 0.73158 1.1431 1.4447 1.2184 0.85861 1.3386 1.0467 1.2606 1.9724-0.0726 0.86275-0.26095 1.1087-1.1997 1.567-0.92675 0.45251-1.2412 0.48548-1.8753 0.19664-0.41902-0.19088-0.94758-0.61215-1.1746-0.93618-0.60071-0.85741-0.90939-0.19121-0.91481 1.9743-7e-3 2.7591 0.234 3.5932 1.0378 3.5932 0.37356 0 3.4613-0.45851 6.8616-1.0189 6.3237-1.0422 8.4714-1.2591 13.965-1.4103 3.9876-0.10975 4.0708-0.18 4.2803-3.6142 0.12886-2.112 0.31193-2.8404 1.0891-4.3333 0.92633-1.7793 1.2142-3.2702 0.63141-3.2702-0.16653 0-1.0325 0.5553-1.9243 1.234-0.8919 0.67871-1.9736 1.4953-2.4039 1.8147-0.43027 0.3194-1.1386 0.94004-1.574 1.3792-0.43548 0.43917-1.0371 0.79849-1.337 0.79849-0.49961 0-0.53254-0.18851-0.39308-2.2503 0.0837-1.2377 0.33503-3.075 0.55847-4.083s0.40628-2.5475 0.40628-3.421c0-2.6421 0.95957-4.1828 2.605-4.1828 0.33562 0 0.92388-0.20549 1.3073-0.45664 0.85529-0.56025 2.1646-0.4431 2.587 0.23148 0.22967 0.36671 0.21101 0.7553-0.0696 1.4518-0.21085 0.52307-0.69985 2.127-1.0867 3.5643-0.38687 1.4373-0.77588 2.8419-0.86445 3.1213-0.52765 1.6647 3.197-1.288 4.0722-3.2283 0.38648-0.85685 1.0206-1.4859 2.3915-2.3722 3.0894-1.9974 4.1341-1.1043 2.5713 2.1982-0.40806 0.86239-1.0364 3.2555-1.4559 5.5448-0.40585 2.2152-1.0468 4.9422-1.4242 6.0601-1.1904 3.5256-1.3394 4.0837-1.3394 5.0156 0 0.98595-0.41105 2.1097-1.1966 3.2712-0.27431 0.40562-0.91983 1.5162-1.4344 2.468-0.51463 0.9518-1.0979 1.9265-1.2963 2.1661-0.19833 0.23954-0.44942 0.72709-0.55804 1.0834-0.10854 0.35633-1.6597 2.0859-3.447 3.8435-4.11 4.0419-4.5117 4.4012-5.573 4.9856-0.47924 0.26384-0.85318 0.68935-0.83099 0.94556 0.0238 0.27741-0.18162 0.46587-0.50827 0.46587-0.32454 0-0.55321-0.20748-0.55989-0.50811-0.0132-0.58963-1.7132-1.4652-4.9063-2.5269-1.1872-0.39471-3.0187-1.3106-4.07-2.0352-1.0513-0.72465-2.0731-1.3176-2.2707-1.3176-0.60582 0-0.41232-1.4029 0.24177-1.7529 0.33052-0.17685 1.3121-0.96541 2.1813-1.7524 0.86922-0.78696 1.7882-1.4308 2.042-1.4308 0.25391 0 0.89 0.42466 1.4135 0.94367 1.5595 1.5461 2.7403 2.2974 3.321 2.1132 0.29408-0.09326 1.6757-0.35431 3.0702-0.58 2.8683-0.46419 3.3555-0.78421 4.4337-2.9124 0.40454-0.79849 1.3332-2.1518 2.0636-3.0074 1.2494-1.4635 1.2964-1.5787 0.79319-1.9466-0.58317-0.42631-4.5217-0.32402-6.7047 0.17412-0.63897 0.14581-2.2029 0.26829-3.4755 0.2722-5.6522 0.01735-12.487 0.80005-13.442 1.5395-0.2592 0.20053-0.36303 1.4228-0.36303 4.274 0 5.1203 0.11037 5.6443 1.3416 6.3706 0.54007 0.31855 0.98191 0.7366 0.98191 0.92902 0 0.19244 0.21457 0.58692 0.47681 0.87662 0.44788 0.49478 0.4092 0.58865-0.63763 1.5472-1.0545 0.96558-1.9802 1.2233-2.9675 0.82619zm-82.115-4.1422c-1.0538-0.25647-2.6543-1.0661-2.9031-1.4686-0.0995-0.16083-0.43447-0.29242-0.7445-0.29242-0.72856 0-1.7255-0.99981-1.7255-1.7305 0-1.243 3.6916-3.7299 5.6025-3.7743 0.2859-0.0067 1.0622 0.26451 1.725 0.60257 1.6359 0.83434 3.339 0.61171 5.5631-0.7272 0.93929-0.56544 1.9193-1.2088 2.1778-1.4298 0.25854-0.22095 1.629-0.84627 3.0454-1.3896 1.7297-0.66351 2.898-1.3188 3.5578-1.9957 1.1595-1.1893 1.2166-1.4603 0.30815-1.4603-1.2257 0-3.5224-0.93319-4.4518-1.8089-1.0839-1.0213-1.5652-0.94381-3.3386 0.53745-2.3111 1.9304-3.698 2.299-4.9218 1.3083-0.64433-0.5216-0.6551-0.59564-0.26372-1.8147 0.31403-0.97812 1.1474-2.0068 3.6174-4.4649 4.5362-4.5145 7.0364-7.2547 7.5825-8.3106 0.61895-1.1966 0.62741-3.0716 0.0188-4.2476-0.66344-1.2826-1.8238-1.2906-3.0935-0.02131-1.7739 1.7734-3.9861 4.7489-4.3351 5.8308-0.38114 1.1815-1.0116 1.6673-2.164 1.6673-1.1026 0-1.3087-0.73293-1.1988-4.2644 0.097-3.1155 0.59439-5.0271 1.3081-5.0271 0.14794 0 0.70823-0.45211 1.245-1.0047 0.5368-0.55257 1.9642-1.4738 3.172-2.0473 1.9172-0.91023 2.5049-1.0499 4.6289-1.1004 2.3372-0.05553 2.493-0.01797 3.9602 0.95543 1.6866 1.1189 1.717 1.174 1.9659 3.5655 0.21637 2.0785-0.54217 5.7284-1.4204 6.8346-1 1.2596-1.8028 2.4567-2.3266 3.4692-0.26892 0.51995-1.0734 1.4839-1.7876 2.1421-0.71423 0.65819-1.2986 1.314-1.2986 1.4573 0 0.25751 0.20421 0.35564 3.0496 1.4654 2.9516 1.1512 3.0786 1.1625 4.2154 0.37494 1.9661-1.3621 6.0952-0.72991 6.0952 0.93324 0 1.4349-2.3258 3.3936-4.7112 3.9675-0.43467 0.10459-0.94398 0.48259-1.1318 0.84003-0.18784 0.35743-1.1718 1.5343-2.1867 2.6152-1.0148 1.081-1.8452 2.1291-1.8452 2.3293 0 0.97726-3.3114 3.9835-5.8087 5.2734-2.6025 1.3442-3.2177 1.5605-5.7052 2.0061-2.8087 0.50318-4.0571 0.54973-5.4766 0.20425zm-25.51-0.21243c-0.10648-0.10643-0.19363-0.52903-0.19363-0.93906 0-0.54258 0.5094-1.2209 1.8714-2.4922 1.4669-1.3691 2.0948-2.2367 2.9044-4.0131 0.56809-1.2465 1.0329-2.4507 1.0329-2.6759 0-0.38007 0.21445-0.94154 1.3836-3.6233 0.24371-0.55893 0.53886-1.5147 0.65593-2.1239 0.20129-1.0477 0.15577-1.1441-0.84077-1.7818-1.9958-1.2771-4.0255-4.2581-3.6674-5.3862 0.21897-0.68977 1.2892-1.0138 2.396-0.72547 0.43928 0.11446 2.1404 0.24557 3.7801 0.29134 2.2203 0.06199 3.1755 0.21038 3.7418 0.58132 0.74164 0.48579 0.75504 0.54928 0.54353 2.5711-0.11929 1.1402-0.25796 4.3082-0.30814 7.0401-0.0812 4.4143-0.1581 5.0767-0.69185 5.9523-0.33035 0.54188-0.68507 1.6385-0.78831 2.437-0.15425 1.1929-0.39664 1.6526-1.3596 2.5778-1.1653 1.1197-1.1822 1.1251-3.0008 0.95531-1.817-0.16963-2.3579-0.0459-4.9376 1.1307-0.96492 0.44009-2.1961 0.54935-2.5216 0.22383zm182.98-6.5236c-0.86326-1.3454-1.1376-3.066-0.65412-4.1019 0.24145-0.51722 0.63222-1.6933 0.86843-2.6134 0.23617-0.92017 0.50625-1.7973 0.60012-1.9492 0.29356-0.47485 2.3397-0.97705 7.3313-1.7993 1.7413-0.28686 2.2295-0.27589 2.8654 0.06432 0.73202 0.39166 0.75708 0.48231 0.55644 2.0126-0.11555 0.88136-0.24863 1.9291-0.29566 2.3284-0.26772 2.2714-0.43394 2.5194-2.3633 3.5253-4.5504 2.3726-5.6472 2.846-7.0143 3.0273-1.3178 0.17477-1.4948 0.12862-1.8944-0.49412zm4.8764-3.732c1.3554-0.58081 1.7065-1.0302 1.9954-2.5536 0.15981-0.8426 0.0905-0.98725-0.59953-1.2495-0.97533-0.37072-2.9554-0.06638-3.6678 0.56375-1.1027 0.9753-1.7735 3.296-1.1367 3.9327 0.28947 0.28936 1.8618-0.03049 3.4086-0.69337zm-2.3148-0.0033c0.0988-0.1597 0.23712-0.29036 0.30757-0.29036 0.0704 0 0.12808 0.13066 0.12808 0.29036 0 0.15969-0.13841 0.29036-0.30757 0.29036-0.16918 0-0.22681-0.13067-0.12808-0.29036zm-73.452-15.053c-0.10059-0.16258-0.0412-0.38304 0.13176-0.48992 0.44653-0.2759 0.73465 0.10206 0.36186 0.47469-0.20857 0.20853-0.37104 0.21354-0.49362 0.01525zm-76.994-28.709c-0.7987-0.24353-1.7136-0.55234-2.033-0.68626-0.31947-0.13392-1.6918-0.65847-3.0496-1.1657-1.3578-0.50719-2.6253-1.0456-2.8167-1.1963-0.19139-0.1508-1.6287-0.68845-3.194-1.1948-3.0203-0.97702-3.5148-1.4598-2.5674-2.5063 0.32968-0.36418 1.0307-0.56632 2.2764-0.65635 1.1163-0.08067 2.4325-0.42645 3.4654-0.91033 0.95597-0.44787 2.8118-0.95554 4.3565-1.1917 1.4801-0.22631 3.4631-0.68074 4.4066-1.0098 0.94351-0.32911 1.9274-0.59837 2.1865-0.59837 0.25903 0 1.4365-0.46257 2.6165-1.0279 1.1801-0.56536 2.9828-1.2984 4.0063-1.6289 2.4817-0.80152 3.156-1.4627 3.5093-3.4407 0.32823-1.8377 1.3088-4.2296 2.4853-6.0623l0.81615-1.2714-0.52386-1.1615c-0.28818-0.63881-1.04-1.6673-1.6709-2.2855-1.1419-1.119-1.1575-1.124-3.4969-1.12-1.2924 0.0022-2.6349 0.08046-2.9833 0.17379-1.445 0.38743-0.9208 1.9702 1.0007 3.0217 4.1031 2.2452 5.4125 3.4788 3.6926 3.4788-0.40278 0-1.9385-0.46316-3.4126-1.0292-1.4742-0.56608-3.0724-1.176-3.5516-1.3553-0.47921-0.17933-1.0336-0.44992-1.232-0.60131-0.69738-0.53225-4.4604-2.2609-5.2771-2.4242-1.1896-0.23786-1.9587 0.29582-2.7902 1.9362-0.40183 0.79275-0.90987 1.4414-1.129 1.4414-1.0245 0-0.72434-4.0029 0.41827-5.5776 0.73928-1.0189 0.71971-1.28-0.1382-1.842-0.38997-0.25545-1.1589-0.8791-1.7087-1.3859-0.83648-0.77102-2.1809-1.5379-5.4241-3.0939-0.6937-0.33281-0.69577-1.6178-3e-3 -2.2624 0.4738-0.4413 1.2177-0.61331 3.3197-0.76757 4.0016-0.29366 3.5673-0.52565 7.1395 3.8132 2.095 2.5446 3.1271 2.6503 7.9871 0.81762 4.6108-1.7387 5.3002-1.6957 7.8509 0.48909 0.95344 0.81669 2.6075 2.0523 3.6756 2.7458 4.1579 2.6995 4.4942 3.3623 3.4582 6.8153-0.55327 1.8441-0.79498 6.9266-0.32939 6.9266 0.11961 0 0.51098-0.98827 0.86965-2.1962 0.60165-2.0261 0.77547-2.2929 2.2439-3.4451 0.87548-0.68692 2.7736-1.8719 4.2181-2.6333 2.5782-1.359 2.6417-1.4182 3.462-3.2267 0.45955-1.0133 0.83555-2.3388 0.83555-2.9455 0-0.60676 0.18396-1.3657 0.40876-1.6866 0.22481-0.32087 0.96453-1.6199 1.6438-2.8866 1.6928-3.1568 2.0113-3.3971 4.2628-3.2155 2.1433 0.17286 2.9076 0.52485 3.283 1.5119 0.22032 0.57929 0.1434 0.91575-0.37766 1.6519-0.73937 1.0446-1.0911 1.6017-2.0294 3.2141-0.71544 1.2295-0.85577 1.4557-2.0589 3.3207-0.44533 0.69027-1.2547 2.2312-1.7986 3.4244-0.54387 1.1932-1.2633 2.5547-1.5988 3.0256-0.75072 1.054-4.132 3.0982-6.0586 3.6629-1.028 0.30126-2.066 0.98645-3.7074 2.4471-1.9432 1.7293-2.4002 2.0064-3.0968 1.8775-0.71184-0.13172-0.79356-0.07681-0.63395 0.42593 0.13968 0.43991 0.0501 0.57715-0.37745 0.57715-0.30837 0-1.1422 0.62063-1.8529 1.3792-1.4106 1.5056-3.1771 2.7762-4.3094 3.0998-1.8305 0.52311-4.199 1.6053-7.4778 3.4165-1.9584 1.0819-3.9189 2.0529-4.3566 2.1578-1.2966 0.31076-2.3932 0.96459-2.3932 1.4269 0 0.23743 0.71885 0.89139 1.5974 1.4533 1.6176 1.0345 1.8796 1.4765 1.2489 2.1071-0.44951 0.44939-1.4692 0.40283-3.282-0.14985zm95.989-1.4243c-1.5559-0.29344-2.3238-0.75296-2.3046-1.3792 0.0111-0.33995 0.45813-1.4674 0.99491-2.5054 3.541-6.8477 4.188-8.7783 3.2543-9.7117-0.68397-0.68382-0.89638-0.57289-1.9165 1.001-0.51755 0.7985-1.095 1.6187-1.2833 1.8226-0.54009 0.58501-1.4644 1.9987-2.0896 3.1961-1.0163 1.9461-3.9893 3.3896-6.9992 3.3983-1.4279 0.0044-2.2518-0.57537-3.6024-2.534-0.66554-0.96502-1.4293-1.6322-2.4284-2.121-1.5442-0.75567-2.6481-2.1767-2.3315-3.0015 0.29106-0.7583 1.3739-0.85191 2.6128-0.22586 0.98683 0.49868 1.728 0.5738 5.6464 0.57229 2.8609-0.0011 4.7308-0.12416 5.113-0.33652 0.77845-0.43257 3.882-3.7998 3.882-4.2119 0-0.17337-0.27611-0.84474-0.61354-1.4919-0.35963-0.68984-0.54586-1.4444-0.45003-1.8237 0.54941-2.1747 2.2622-7.5293 2.7639-8.6406 0.32661-0.72349 0.68088-2.1646 0.78725-3.2024l0.1934-1.887-1.2679-1.0926c-2.1327-1.8378-2.2844-2.0181-2.2844-2.7159 0-0.3713 0.25246-0.92749 0.56106-1.236 0.70855-0.70836 1.6412-0.48864 2.9718 0.70013 0.87707 0.78359 1.16 0.86569 3.0017 0.87107l2.0334 0.0056 0.10218 1.4518c0.0564 0.79848-0.0593 2.476-0.25656 3.7278-0.3438 2.1811-0.33302 2.3018 0.25892 2.8936l0.6177 0.61753 3.5598-0.67569c1.9579-0.37164 3.7096-0.71714 3.8926-0.76778 0.47793-0.13223 1.3421-2.9162 1.1212-3.612-0.13758-0.43338-0.43808-0.58651-1.151-0.58651-0.53062 0-1.2686-0.24598-1.64-0.54661-0.59987-0.48563-0.63589-0.63289-0.32271-1.3201 0.19389-0.4254 0.72496-0.98715 1.1802-1.2483 0.4552-0.26118 0.96237-0.83164 1.127-1.2677 0.16463-0.43604 0.73495-1.018 1.2674-1.2932l0.96802-0.50045 0.89382 1.0337c0.88008 1.0179 0.92059 1.0313 2.6491 0.87455 2.8586-0.25914 3.7737 0.69486 2.3318 2.4312-0.37487 0.45142-1.7022 2.3234-2.9497 4.1599-2.4841 3.6573-2.5339 3.7103-3.7272 3.969-1.0785 0.23383-1.2276 0.71637-0.65986 2.135 0.25684 0.6417 0.46896 1.9807 0.47143 2.9756 7e-3 2.682 0.21384 2.8554 2.1574 1.8055 1.2522-0.67643 1.7153-0.79914 2.101-0.55663 1.0329 0.64957 0.91007 0.89022-1.397 2.7365-0.69767 0.55829-1.934 1.7209-2.7475 2.5836-1.6506 1.7505-2.123 1.8093-3.7489 0.46617-0.81575-0.67384-0.86426-0.82644-0.76047-2.3923 0.22035-3.3248 0.17717-3.6367-0.57049-4.1181-0.64958-0.41826-1.5557-1.3116-2.7044-2.6664-0.25651-0.3025-0.81038-0.55-1.2308-0.55-0.42041 0-1.1905-0.26329-1.7114-0.58509l-0.94696-0.58508-0.59207 1.0032c-0.5258 0.89092-1.7939 4.8278-1.7939 5.5692 0 0.32776 1.3704 1.8026 3.159 3.3995 0.82409 0.7358 1.2912 1.4222 1.3925 2.0459 0.14811 0.9127-0.37979 3.5412-1.2789 6.3673-0.24332 0.76477-0.38435 1.4485-0.31343 1.5194 0.0708 0.07089 0.52171 0.01636 1.0017-0.12131 1.3139-0.37671 3.9266 0.12144 4.5345 0.86455 0.58779 0.7186 0.68893 2.8735 0.15972 3.4026-0.57385 0.5737-1.6234 0.4177-1.843-0.27393-0.19136-0.60265-0.22461-0.59343-1.0511 0.29065-0.46944 0.50217-1.224 1.1046-1.677 1.3387-0.84669 0.43774-4.8246 0.79846-6.117 0.5547zm-86.841-1.2714c0-0.15971 0.13071-0.29037 0.29043-0.29037 0.15974 0 0.29046 0.13066 0.29046 0.29037 0 0.1597-0.13072 0.29036-0.29046 0.29036-0.15972 0-0.29043-0.13066-0.29043-0.29036zm42.694-1.9067c-1.725-0.99279-2.3235-1.5565-2.3235-2.1886 0-0.28655-0.38478-0.88693-0.85511-1.3342-0.47034-0.44726-1.1282-1.5153-1.462-2.3733-0.33378-0.85807-1.0777-2.1346-1.6532-2.8366-1.1591-1.4141-1.3758-2.4024-1.3915-6.3465-0.0114-2.8417 0.50748-4.3366 2.6352-7.5924 1.7373-2.6585 2.7677-3.4344 4.9446-3.7238 1.1993-0.15943 1.7197-0.08208 2.6539 0.39439 1.3353 0.68103 2.9431 2.7494 3.6937 4.7518 0.28433 0.75857 0.58882 1.3792 0.67662 1.3792 0.0879 0 0.42945-0.25265 0.75921-0.56143 1.1518-1.0784 2.1814-1.4463 3.1264-1.117 0.86406 0.30114 1.9661 1.7199 1.9803 2.5495 4e-3 0.23954 0.2766 1.0235 0.60551 1.7422l0.59802 1.3066 0.52803-1.0162c0.29043-0.55894 1.064-1.6243 1.7191-2.3674 0.65507-0.74314 1.1911-1.4399 1.1911-1.5484 0-0.37068 4.3644-4.9913 5.0722-5.37 1.3406-0.71727 1.6649-2.236 1.3216-6.1894-0.26167-3.0126-0.24321-3.5738 0.12983-3.9467 0.38623-0.38611 0.62588-0.3435 2.1416 0.38075 1.5286 0.73043 1.8936 0.79382 3.4986 0.60758 2.5439-0.29517 3.2461 0.46634 2.234 2.4228-0.22787 0.44056-0.49371 1.8659-0.59065 3.1675-0.23653 3.1746-0.69768 4.1532-2.6614 5.648-2.4577 1.8708-3.9774 2.8285-4.4979 2.8346-0.25725 0.0033-0.91075 0.30204-1.4522 0.66451-0.54144 0.36246-2.0075 1.2927-3.2579 2.0672-1.2504 0.77449-2.7891 1.9447-3.4194 2.6005-0.98834 1.0283-1.2214 1.1452-1.6942 0.85007-0.93237-0.58211-0.94136 0.30089-0.0264 2.5998 0.46223 1.1615 0.9807 2.6519 1.1522 3.312 0.17143 0.66011 0.50681 1.3621 0.74527 1.5599 0.23848 0.19785 0.43358 0.52535 0.43358 0.72778 0 0.47384 2.4373 3.8261 3.5199 4.8413 0.67234 0.63043 0.7844 0.90859 0.585 1.4518-0.40302 1.0977-1.8856 1.064-3.3035-0.07517-1.0068-0.80886-1.5288-0.98106-3.8907-1.2833-1.5003-0.19203-2.824-0.44481-2.9415-0.56173-0.1175-0.11693-0.29096-2.4561-0.38548-5.1981-0.0947-2.742-0.27182-5.2141-0.3941-5.4936-0.52283-1.1949-1.8405-0.36163-4.4181 2.794-3.1191 3.8186-3.7709 4.1247-4.7398 2.2262-0.9018-1.7672-0.76077-2.5558 0.87136-4.8718 2.1002-2.9803 2.4207-4.0537 1.9958-6.6868-0.27098-1.6792-0.49394-2.2424-1.0661-2.6923-1.4641-1.1513-3.0899-0.5768-4.1416 1.4635-0.2058 0.39924-0.89522 1.417-1.5321 2.2618l-1.1579 1.5359 0.18799 3.2901c0.27117 4.747 1.344 7.1227 4.9016 10.854 1.6798 1.762 2.2712 2.5799 2.2045 3.0488-0.13176 0.92594-1.2836 0.94237-2.8503 0.04073zm112.18-2.218c-1.1505-0.59278-1.3574-0.6115-3.0026-0.27181-1.5343 0.31682-1.8591 0.30445-2.4674-0.09403-1.3732-0.89953-0.70476-2.1237 2.2563-4.132 1.6974-1.1513 3.4328-3.0537 3.4328-3.7633 0-0.22074 0.97803-1.3343 2.1734-2.4745 1.1954-1.1402 2.2591-2.3463 2.3639-2.6801 0.46326-1.4764 2.1425-3.595 3.5807-4.5176 0.83373-0.53486 1.6354-1.2869 1.7816-1.6711 0.39591-1.0411 0.32227-1.9946-0.18675-2.4169-0.7205-0.59781-1.2377-2.1332-1.4524-4.3118-0.17941-1.8203-0.1065-2.2812 0.73712-4.6585 0.51495-1.4511 0.86041-2.8359 0.76774-3.0774-0.11541-0.30072 0.15592-0.59371 0.86139-0.93004 0.92582-0.44137 1.1087-0.447 1.809-0.055639 0.7898 0.44128 1.3408 1.7044 1.6496 3.7818 0.22009 1.4808 1.1248 1.9243 2.9073 1.4254 1.8899-0.52901 2.143-0.19253 1.4714 1.9566-0.55431 1.774-2.1579 4.6648-3.2725 5.8995-0.81555 0.90334-0.8203 1.0077-0.0889 1.9374 0.7712 0.98014 0.74856 1.1416-0.43563 3.1076-0.55912 0.92822-1.0165 1.8492-1.0165 2.0466 0 0.19745 1.0338 1.2922 2.2974 2.4329 2.8023 2.5296 3.4236 2.6384 5.1224 0.89708 0.63143-0.64723 1.7433-1.5591 2.4709-2.0264 0.74161-0.47631 1.5312-1.2864 1.797-1.8437 0.26077-0.54673 1.0186-1.4314 1.6842-1.966 2.194-1.7624 2.5322-3.374 1.2951-6.1706-0.39935-0.90274-0.72608-1.9018-0.72608-2.22 0-0.63639 1.2258-2.6286 2.2509-3.6581 0.41733-0.41916 0.65347-1.0083 0.65347-1.6303 0-2.3825 1.6768-2.5467 2.6552-0.26002 0.72029 1.6835 1.4728 2.4986 3.1497 3.4116 1.3493 0.73464 2.6178 2.245 2.6178 3.1169 0 0.55152-0.27439 1.0919-1.694 3.3361-0.53688 0.84882-1.7477 3.0877-2.6907 4.9753-1.0234 2.0485-2.0056 3.6226-2.4366 3.9049-0.96705 0.63344-1.718 1.8267-1.7338 2.7552-0.0111 0.62523-0.29345 0.89698-1.6103 1.5476-0.87855 0.43404-2.094 0.79337-2.701 0.79849-1.1401 0.01-2.5316 0.57803-3.5434 1.4474-0.31949 0.27451-1.3384 0.91702-2.2642 1.4278-1.4654 0.8085-1.813 0.89289-2.6853 0.65209-1.7405-0.48046-3.2604-2.845-3.9383-6.1272-0.14794-0.71642-0.52012-1.5536-0.82702-1.8605-0.51221-0.51203-0.61326-0.52111-1.2303-0.11051-0.70762 0.47087-1.0303 1.0484-2.559 4.5802-2.2004 5.0833-2.8864 6.2277-4.2509 7.0907-1.7295 1.0939-3.3689 1.2254-4.9729 0.39893zm-33.363-1.335c-0.33957-0.04841-0.88371-0.37507-1.2091-0.72588-0.90352-0.9739-2.085-3.3732-1.8993-3.857 0.091-0.23676 0.71911-0.81143 1.3961-1.2771 0.69443-0.47765 1.3955-1.2641 1.6088-1.8046 0.52437-1.3292 1.3932-1.9602 2.7093-1.9678 1.5718-0.0089 4.256 0.81705 4.256 1.3099 0 0.22222-0.25416 1.0949-0.56486 1.9393-0.38797 1.0546-0.54711 2.1549-0.50824 3.5143 0.049 1.7056-0.0236 2.0266-0.52427 2.3229-0.58308 0.34508-4.1092 0.71085-5.2644 0.54608zm-236.96-1.3359c-0.7987-0.37965-1.9257-0.89052-2.5045-1.1353-1.2173-0.51474-4.2179-4.0199-5.2377-6.1184-0.82379-1.6951-0.54354-2.3417 1.0341-2.3858 1.8273-0.05103 2.5343 0.17996 2.3478 0.76732-0.11788 0.37131 0.1514 0.75758 0.9356 1.3421 0.60561 0.45141 1.1665 0.89311 1.2463 0.98156 0.07993 0.08847 0.5811 0.46532 1.1138 0.83749l0.96861 0.67668 1.4813-1.4166c0.81473-0.77911 1.7175-1.6973 2.0062-2.0403 0.28868-0.34307 1.8001-1.3806 3.3588-2.3056s3.3241-2.0708 3.9231-2.5462c1.0619-0.84271 1.0891-0.91222 1.0847-2.7757-6e-3 -2.1806-0.13458-2.4836-1.241-2.9042-0.66288-0.25196-0.89546-0.20589-1.3736 0.27219-0.31664 0.31653-0.57569 0.87642-0.57569 1.2442 0 0.36779-0.40339 1.2171-0.89642 1.8873-0.74312 1.0102-1.0628 1.2186-1.8689 1.2186-1.3592 0-2.38-0.44416-2.5978-1.1303-0.20576-0.6481 0.15946-1.4564 1.7989-3.9815 0.61118-0.94136 1.3624-2.4769 1.6694-3.4122 0.52684-1.6052 1.7914-3.3806 2.4079-3.3806 0.55504 0 1.8105 1.2157 1.8105 1.7531 0 0.73522 2.52 3.1162 3.5337 3.3388 0.44392 0.09742 1.1966 0.54094 1.6726 0.98548 0.78488 0.73299 0.85695 0.95411 0.77397 2.3741-0.13037 2.2308-0.45951 3.6704-0.92802 4.0591-0.43558 0.36139-0.56035 1.4266-0.16714 1.4266 0.131 0 0.76361 0.44961 1.4058 0.99914 1.4193 1.2145 3.8103 1.8358 8.0538 2.0927 2.6317 0.15934 3.0755 0.11214 4.2778-0.45486 0.7378-0.34795 1.4707-0.92029 1.6286-1.2719 0.25096-0.55859 0.0725-0.84827-1.4141-2.2962-1.8175-1.7702-2.0256-2.4074-1.386-4.2418 0.1734-0.49732 0.35084-1.3335 0.39429-1.8581 0.0435-0.5246 0.0977-1.1204 0.12038-1.324 0.0225-0.20358 0.38531-0.50088 0.80573-0.66068 0.73367-0.27887 1.7877 0.0404 3.9513 1.1968 0.27736 0.14826 0.71599 0.26956 0.97474 0.26956 0.66431 0 1.6098 1.3042 2.1921 3.0238 0.62962 1.8594 0.47563 3.5114-0.67139 7.2023-0.82543 2.6562-0.95254 2.872-2.1627 3.6734-0.8102 0.53649-2.0007 0.97588-3.2189 1.188-1.0633 0.18511-2.1516 0.45344-2.4186 0.59628-0.80885 0.43278-4.6772 1.3684-6.4573 1.5618-1.6542 0.17972-1.6881 0.16814-2.9722-1.0151-1.1978-1.1038-3.2411-3.8465-4.6485-6.2399-0.31951-0.5433-0.75934-0.98816-0.97747-0.98859-0.40228-8.01e-4 -2.653 2.2809-2.653 2.6895 0 0.12241-1.0427 1.7557-2.3171 3.6296-1.6749 2.4628-2.7029 3.6686-3.7091 4.3507-1.6635 1.1278-2.6118 1.1787-4.5748 0.24558zm-85.09-3.9384c-0.82715-0.91374-0.53599-1.7921 1.0579-3.1913 2.6431-2.3203 4.2228-4.0386 4.745-5.1612 0.27974-0.60135 0.96183-1.732 1.5158-2.5127 0.88793-1.2513 0.96764-1.506 0.6735-2.1514-0.37701-0.82721-0.03028-1.2462 0.84252-1.018 0.32108 0.08397 0.6912-0.16367 1.0297-0.68889 0.29063-0.45097 1.3284-1.6137 2.3062-2.5838 0.97779-0.9701 2.1857-2.2787 2.6843-2.908 1.3489-1.7027 4.548-2.4385 5.8825-1.3531l0.6247 0.50812-0.87524 1.3066c-0.48138 0.71863-1.7282 2.4626-2.7708 3.8756-1.1258 1.5258-1.8956 2.8596-1.8956 3.2846 0 1.1095 0.87655 3.523 1.3447 3.7026 0.53649 0.2058 3.0664-2.3121 4.5785-4.5568 0.62203-0.92341 1.5369-1.9992 2.0331-2.3907 1.4093-1.112 2.9816-2.4888 4.507-3.9465 0.77006-0.73589 1.7275-1.4202 2.1278-1.5206 0.4002-0.10042 1.3652-0.64178 2.1445-1.203 1.9753-1.4227 2.5981-1.6385 4.4467-1.5407 1.5196 0.08035 1.6226 0.13321 1.7083 0.87626 0.08967 0.77825-1.2175 2.8387-1.801 2.8387-0.14173 1.1e-5 -1.1488 0.5869-2.2379 1.3042-1.0891 0.71731-2.6994 1.6447-3.5785 2.0608-2.1343 1.0103-2.5057 1.4706-1.4961 1.8543 0.42376 0.16107 1.1241 0.38014 1.5564 0.4868 1.465 0.36154 3.0997 1.6193 6.7846 5.2203l3.6752 3.5915 1.843-0.0033c1.4414-0.0022 2.1269-0.1657 3.1457-0.74785 0.71647-0.40939 2.1941-1.0557 3.2837-1.4363 2.4717-0.86334 4.7368-2.1457 5.8578-3.3164 0.81029-0.8462 0.83787-0.95171 0.47978-1.8345-1.4088-3.473-0.87505-6.1283 1.4778-7.3521 1.2252-0.63728 2.3282-0.4911 3.655 0.48435 0.8939 0.65721 1.2993 1.2118 1.5386 2.1051 0.17869 0.66702 0.44248 1.5129 0.58617 1.8798 0.74431 1.9001-0.48162 4.6631-2.9749 6.7048-0.85584 0.70082-2.4843 2.1381-3.6187 3.1939s-2.8988 2.37-3.9209 2.9204c-1.0221 0.55038-2.6242 1.563-3.5602 2.2503-1.571 1.1534-1.8392 1.2494-3.4852 1.2469-2.1224-0.0033-3.1469-0.44436-7.1564-3.0819-0.55909-0.36778-1.8659-1.6861-2.9039-2.9297-4.0902-4.8997-5.5522-6.1842-7.4659-6.5593-1.2493-0.24484-1.8194 0.5087-2.8253 3.734-1.0314 3.3072-0.98635 3.4641 1.0009 3.4831 2.0117 0.01919 3.0192 0.52135 2.7864 1.3889-0.09276 0.34564-0.17041 0.78991-0.17258 0.98727-0.0022 0.19736-0.5294 0.70645-1.1716 1.1313-0.91451 0.60503-1.592 0.79256-3.1251 0.86502-1.0766 0.05092-2.79 0.35843-3.8076 0.68342-4.2679 1.3631-6.1092 0.30238-3.943-2.2713 0.38265-0.45463 0.7815-1.3629 0.88635-2.0184l0.19063-1.1918-0.97903 0.14314c-1.2443 0.18194-1.4733-0.0033-2.113-1.7082-0.36986-0.98576-0.66356-1.3689-1.0016-1.3066-0.59524 0.10963-1.642 2.2076-2.1063 4.2217-0.19278 0.83621-0.5685 1.7176-0.83493 1.9586-0.26643 0.24105-1.7695 0.96102-3.3402 1.5999-2.4769 1.0076-2.9942 1.1256-3.8994 0.88955-0.58226-0.15185-1.5857-0.1693-2.2697-0.03954-0.98535 0.18698-1.3132 0.13636-1.67-0.25784zm311.92-0.54001c-0.47923-0.29508-1.0497-0.75258-1.2679-1.0166-0.48257-0.58424-0.52236-3.0666-0.0627-3.9249 0.59645-1.1142 2.3878-1.7866 4.7594-1.7866 2.3584 0 2.762 0.23438 3.3315 1.9346 0.94912 2.8333-4.1136 6.4232-6.7602 4.7935zm-141.07-1.2132c-1.5521-0.63172-3.4246-1.6084-4.161-2.1703-0.73641-0.56196-1.4682-1.0217-1.6262-1.0217-0.46638 0-1.5375 0.63409-1.7883 1.0586-0.16172 0.27374-0.87873 0.39315-2.3607 0.39315-1.2348 0-2.5661 0.18285-3.171 0.43554-1.6304 0.68103-2.4599 0.55398-3.4865-0.5341-0.85081-0.90172-2.7595-3.0658-3.6044-4.0868-0.43971-0.53129-1.6742-3.8938-2.4282-6.6139-1.0652-3.8427-0.68528-5.0003 2.4174-7.3661 3.1216-2.3802 4.9932-3.0951 7.0931-2.7094 3.2164 0.59084 4.5819 1.1642 5.7725 2.4239 1.4806 1.5665 2.034 1.7688 2.606 0.95249 0.24398-0.34824 0.44362-0.85926 0.44362-1.1356 0-0.92195 0.64597-1.935 1.3459-2.1106 0.8896-0.22322 2.3808 0.54317 2.7024 1.3889 0.13623 0.35822 0.45737 0.82529 0.71361 1.0379 0.76996 0.63883 0.57841 1.4689-0.38338 1.6612-1.0122 0.20239-1.1995 0.62174-2.0571 4.6066-0.34372 1.597-0.74525 3.3048-0.89231 3.7953-0.49243 1.6423-0.39203 1.8282 0.89436 1.6557 1.2631-0.16937 1.1933-0.27575 1.2716 1.9395 0.038 1.0761-0.07 1.0147 2.9398 1.6695 1.1822 0.2572 4.7403-0.41701 6.0876-1.1535 0.32587-0.17812 1.2459-0.43478 2.0446-0.57036 0.79867-0.13559 1.8756-0.32054 2.3932-0.41102 1.5978-0.27935 1.6733 1.3147 0.10002 2.1126-0.35455 0.17981-1.1033 0.7329-1.6639 1.2291-0.56059 0.49618-1.5323 1.0558-2.1594 1.2436-0.70401 0.21088-1.4304 0.722-1.8991 1.3363-0.73298 0.96075-2.8422 2.1145-3.8379 2.0994-0.26633-0.0044-1.7541-0.52422-3.3062-1.1559zm-6.7921-6.6283c0.0824-0.13325 0.18812-2.0791 0.23499-4.3242 0.078-3.7403 0.0366-4.1356-0.49501-4.7235-0.79895-0.88358-1.9836-1.4533-3.0222-1.4533-0.47961 0-1.2037-0.15107-1.609-0.33571-0.75474-0.3438-0.84174-0.32059-4.1265 1.101-0.50333 0.21786-1.0511 0.39609-1.2172 0.39609-0.67711 0-0.56677 0.61766 0.47386 2.6525 0.60151 1.1761 1.2737 2.6919 1.4938 3.3683 0.60691 1.8651 1.2011 2.2532 3.4629 2.2617 1.3846 0.0056 2.2579 0.17901 3.0915 0.6154 1.3799 0.72239 1.5175 0.75787 1.7129 0.44172zm-109.41 5.8637c-0.23204-0.23197 0.03028-0.68539 0.3965-0.68539 0.15031 0 0.27329 0.19598 0.27329 0.43553 0 0.44902-0.3427 0.57686-0.66978 0.24986zm289.13-3.8674c-2.5985-1.6791-3.2183-1.9441-5.0201-2.1467-1.5651-0.17603-1.6891-0.13799-3.2936 1.0106-1.4575 1.0434-1.7552 1.1534-2.3672 0.8747-0.67946-0.30952-0.69991-0.41454-0.69887-3.5916 0-3.5203 0.38879-4.7267 1.7534-5.4568 0.432-0.23113 0.5761-0.51604 0.46872-0.92656-0.23913-0.9142 0.6056-1.9707 1.5757-1.9707 1.1246 0 1.4287 0.6903 1.4305 3.2474 0 1.5409 0.14689 2.3634 0.53084 2.9953 0.49495 0.81456 0.64407 0.87107 2.2978 0.87107 1.5084 0 1.956 0.13209 3.0434 0.89809 1.993 1.4039 2.51 1.4301 4.7785 0.24179 3.5896-1.8802 4.9443-2.1068 5.406-0.90386 0.24626 0.64144-0.14565 1.0013-1.9675 1.8068-1.15 0.50846-2.2632 1.3286-3.3657 2.4798-0.92123 0.96193-1.8998 1.7201-2.2203 1.7201-0.31509 0-1.3734-0.51726-2.3518-1.1495zm-18.932-3.1179c-0.23962-0.08976-0.98393-0.40758-1.654-0.70631-0.67017-0.29873-1.5321-0.54315-1.9154-0.54315-0.8514 0-1.6584-0.83343-1.6584-1.7127 0-0.3579 0.38878-1.2156 0.86398-1.9061 1.734-2.5197 4.9857-2.5432 7.7765-0.05631 0.89563 0.79812 0.81933 1.5033-0.24747 2.2871-0.49549 0.3641-1.1165 1.1176-1.38 1.6744-0.47822 1.0104-0.9619 1.2713-1.7852 0.96298zm-150.02-4.139c-1.0959-0.44408-1.3885-1.0851-1.2045-2.6384 0.24687-2.0841 0.739-2.9082 2.3758-3.979 1.5991-1.046 2.2195-1.1611 2.7588-0.51141 0.27831 0.33528 0.28643 0.72944 0.0355 1.7255-0.17885 0.71006-0.32518 1.7363-0.32518 2.2805 0 2.7347-1.4753 4.0002-3.6405 3.1228zm169.26-0.8243c-0.43814-0.4679-1.0076-1.1641-1.2655-1.5471-0.25788-0.38301-0.84601-0.88562-1.307-1.1169-1.3414-0.67314-1.8546-1.2131-1.8546-1.9515 0-0.92209 0.61541-1.1056 2.5388-0.75708 1.4001 0.25371 1.6618 0.22532 2.0448-0.22192 0.24159-0.28208 0.59892-0.45162 0.79402-0.37675 0.19516 0.07484 0.42852-0.14576 0.51864-0.49025 0.0998-0.38146 0.29586-0.54478 0.50149-0.41772 0.18575 0.11476 0.6605 0.03589 1.055-0.17514 0.50593-0.27072 0.85571-0.29648 1.1872-0.08748 1.0966 0.69154 1.0894 1.1386-0.0612 3.8246-1.266 2.9552-1.7671 3.6923-2.6994 3.9716-0.49973 0.14965-0.84495-0.0056-1.4522-0.65437z" stroke-width=".2904"/>
</svg>
