<?xml version="1.0" encoding="UTF-8"?>
<svg xmlns="http://www.w3.org/2000/svg" xmlns:se="https://standardebooks.org/vocab/1.0" version="1.1" viewBox="0 0 1400 540" se:generated-from="623382e53c0e80edbf9f410b919d354a867cd4a1">
	<path d="M 264.46564,68.245613 282.80482,68.245613 282.80482,130 300.39546,130 300.39546,68.245613 318.73464,68.245613 318.73464,52.807016 264.46564,52.807016 264.46564,68.245613 Z"/>
	<path d="M 347.66008,99.029239 372.54897,99.029239 372.54897,130 390.13961,130 390.13961,52.807016 372.54897,52.807016 372.54897,83.590642 347.66008,83.590642 347.66008,52.807016 330.06944,52.807016 330.06944,130 347.66008,130 347.66008,99.029239 Z"/>
	<path d="M 450.50512,52.807016 406.34137,52.807016 406.34137,130 450.50512,130 450.50512,114.5614 423.93202,114.5614 423.93202,99.029239 449.38231,99.029239 449.38231,83.590642 423.93202,83.590642 423.93202,68.245613 450.50512,68.245613 450.50512,52.807016 Z"/>
	<path d="M 522.81945,51.403507 C 510.375,51.403507 497.64986,60.573098 497.64986,74.982455 497.64986,83.029239 503.07676,90.233917 512.33991,94.818713 521.50951,99.403508 529.74342,101.92982 529.74342,107.54386 529.74342,114.74854 522.44518,115.12281 518.60892,115.12281 510.00073,115.12281 499.70834,106.42105 499.70834,106.42105 L 490.91301,121.20468 C 490.91301,121.20468 501.86038,131.40351 519.91886,131.40351 534.98319,131.40351 549.01828,124.94737 549.01828,106.51462 549.01828,96.409356 539.56799,89.11111 530.9598,85.461988 522.16448,81.719297 514.86623,78.631578 514.86623,74.327484 514.86623,70.116958 518.04752,67.403508 524.03582,67.403508 531.98904,67.403508 539.66155,72.736841 539.66155,72.736841 L 546.77266,58.701753 C 546.77266,58.701753 536.85454,51.403507 522.81945,51.403507 Z"/>
	<path d="M 621.56213,52.807016 603.97149,52.807016 603.97149,97.438596 C 603.97149,110.35088 600.04167,114.09357 591.43348,114.09357 582.82529,114.09357 578.89547,110.35088 578.89547,97.438596 L 578.89547,52.807016 561.30482,52.807016 561.30482,102.58479 C 561.30482,121.67251 571.78436,131.40351 591.43348,131.40351 611.0826,131.40351 621.56213,121.67251 621.56213,102.58479 L 621.56213,52.807016 Z"/>
	<path d="M 636.86769,52.807016 636.86769,130 654.45834,130 654.45834,99.497075 678.03728,130 700.39986,130 673.82676,98.093567 C 683.27705,95.099415 689.63962,87.333333 689.63962,75.730993 689.63962,60.573098 678.78582,52.807016 664.47003,52.807016 L 636.86769,52.807016 Z M 654.45834,87.052631 654.45834,66.842104 656.51682,66.842104 C 663.16009,66.842104 671.11331,67.30994 671.11331,76.947367 671.11331,86.584795 663.16009,87.052631 656.51682,87.052631 L 654.45834,87.052631 Z"/>
	<path d="M 708.93642,52.807016 708.93642,130 726.52706,130 726.52706,101.36842 737.10016,101.36842 C 752.16449,101.36842 763.48613,92.479532 763.48613,76.573098 763.48613,60.573098 752.16449,52.807016 737.10016,52.807016 L 708.93642,52.807016 Z M 726.52706,87.333333 726.52706,66.842104 731.48613,66.842104 C 738.4101,66.842104 744.95981,69.181285 744.95981,77.134502 744.95981,84.994151 738.4101,87.333333 731.48613,87.333333 L 726.52706,87.333333 Z"/>
	<path d="M 776.25368,52.807016 776.25368,130 793.84432,130 793.84432,99.497075 817.42327,130 839.78584,130 813.21274,98.093567 C 822.66304,95.099415 829.02561,87.333333 829.02561,75.730993 829.02561,60.573098 818.17181,52.807016 803.85602,52.807016 L 776.25368,52.807016 Z M 793.84432,87.052631 793.84432,66.842104 795.9028,66.842104 C 802.54608,66.842104 810.49929,67.30994 810.49929,76.947367 810.49929,86.584795 802.54608,87.052631 795.9028,87.052631 L 793.84432,87.052631 Z"/>
	<path d="M 865.91305,52.807016 848.32241,52.807016 848.32241,130 865.91305,130 865.91305,52.807016 Z"/>
	<path d="M 908.8136,51.403507 C 896.36916,51.403507 883.64401,60.573098 883.64401,74.982455 883.64401,83.029239 889.07091,90.233917 898.33407,94.818713 907.50366,99.403508 915.73758,101.92982 915.73758,107.54386 915.73758,114.74854 908.43933,115.12281 904.60308,115.12281 895.99489,115.12281 885.70249,106.42105 885.70249,106.42105 L 876.90717,121.20468 C 876.90717,121.20468 887.85454,131.40351 905.91302,131.40351 920.97735,131.40351 935.01243,124.94737 935.01243,106.51462 935.01243,96.409356 925.56214,89.11111 916.95395,85.461988 908.15863,81.719297 900.86039,78.631578 900.86039,74.327484 900.86039,70.116958 904.04167,67.403508 910.02998,67.403508 917.98319,67.403508 925.65571,72.736841 925.65571,72.736841 L 932.76682,58.701753 C 932.76682,58.701753 922.84869,51.403507 908.8136,51.403507 Z"/>
	<path d="M 965.82528,52.807016 948.23464,52.807016 948.23464,130 965.82528,130 965.82528,52.807016 Z"/>
	<path d="M 999.69961,82.093566 999.88674,82.093566 1030.5768,130 1048.1674,130 1048.1674,52.807016 1030.5768,52.807016 1030.5768,100.71345 1030.3897,100.71345 999.69961,52.807016 982.10897,52.807016 982.10897,130 999.69961,130 999.69961,82.093566 Z"/>
	<path d="M 1134.2127,86.771929 1098.5636,86.771929 1098.5636,100.33918 1116.3414,100.33918 C 1116.3414,109.78947 1108.0139,115.21637 1099.5929,115.21637 1088.7391,115.21637 1079.9437,104.54971 1079.9437,91.450292 1079.9437,78.070175 1088.7391,67.30994 1099.5929,67.30994 1106.4233,67.30994 1112.318,70.023391 1116.8092,77.228069 L 1128.318,64.59649 C 1121.5812,56.456139 1112.1309,51.403507 1098.5636,51.403507 1076.856,51.403507 1060.9496,69.274853 1060.9496,91.450292 1060.9496,113.53216 1077.7917,131.40351 1098.5636,131.40351 1113.7215,131.40351 1130.0022,123.07602 1134.2127,103.52047 L 1134.2127,86.771929 Z"/>
	<path d="M 312.31505,152.80702 296.03435,152.80702 264.87645,230 283.77704,230 289.48464,214.5614 318.86476,214.5614 324.57236,230 343.47295,230 312.31505,152.80702 Z M 312.87646,199.12281 295.47295,199.12281 304.08113,176.66667 304.26827,176.66667 312.87646,199.12281 Z"/>
	<path d="M 351.39254,152.80702 351.39254,230 373.75511,230 C 394.99488,230 412.67909,213.90643 412.67909,191.35672 412.67909,168.90058 394.90131,152.80702 373.75511,152.80702 L 351.39254,152.80702 Z M 368.98318,214.2807 368.98318,168.52631 371.69663,168.52631 C 384.79605,168.52631 393.68494,178.53801 393.68494,191.45029 393.59137,204.36257 384.70248,214.2807 371.69663,214.2807 L 368.98318,214.2807 Z"/>
	<path d="M 441.75365,230 455.60161,230 487.97588,152.80702 468.13962,152.80702 448.67763,203.52047 429.21564,152.80702 409.37938,152.80702 441.75365,230 Z"/>
	<path d="M 540.05921,152.80702 495.89547,152.80702 495.89547,230 540.05921,230 540.05921,214.5614 513.48611,214.5614 513.48611,199.02924 538.9364,199.02924 538.9364,183.59064 513.48611,183.59064 513.48611,168.24561 540.05921,168.24561 540.05921,152.80702 Z"/>
	<path d="M 572.76242,182.09357 572.94955,182.09357 603.63961,230 621.23026,230 621.23026,152.80702 603.63961,152.80702 603.63961,200.71345 603.45248,200.71345 572.76242,152.80702 555.17177,152.80702 555.17177,230 572.76242,230 572.76242,182.09357 Z"/>
	<path d="M 628.04019,168.24561 646.37938,168.24561 646.37938,230 663.97002,230 663.97002,168.24561 682.3092,168.24561 682.3092,152.80702 628.04019,152.80702 628.04019,168.24561 Z"/>
	<path d="M 752.96564,152.80702 735.375,152.80702 735.375,197.4386 C 735.375,210.35088 731.44517,214.09357 722.83699,214.09357 714.2288,214.09357 710.29897,210.35088 710.29897,197.4386 L 710.29897,152.80702 692.70833,152.80702 692.70833,202.58479 C 692.70833,221.67251 703.18786,231.40351 722.83699,231.40351 742.48611,231.40351 752.96564,221.67251 752.96564,202.58479 L 752.96564,152.80702 Z"/>
	<path d="M 768.2712,152.80702 768.2712,230 785.86184,230 785.86184,199.49708 809.44079,230 831.80337,230 805.23027,198.09357 C 814.68056,195.09941 821.04313,187.33333 821.04313,175.73099 821.04313,160.5731 810.18933,152.80702 795.87354,152.80702 L 768.2712,152.80702 Z M 785.86184,187.05263 785.86184,166.8421 787.92032,166.8421 C 794.5636,166.8421 802.51682,167.30994 802.51682,176.94737 802.51682,186.58479 794.5636,187.05263 787.92032,187.05263 L 785.86184,187.05263 Z"/>
	<path d="M 884.50367,152.80702 840.33993,152.80702 840.33993,230 884.50367,230 884.50367,214.5614 857.93057,214.5614 857.93057,199.02924 883.38086,199.02924 883.38086,183.59064 857.93057,183.59064 857.93057,168.24561 884.50367,168.24561 884.50367,152.80702 Z"/>
	<path d="M 928.06068,151.40351 C 915.61623,151.40351 902.89109,160.5731 902.89109,174.98246 902.89109,183.02924 908.31799,190.23392 917.58115,194.81871 926.75074,199.40351 934.98465,201.92982 934.98465,207.54386 934.98465,214.74854 927.68641,215.12281 923.85015,215.12281 915.24196,215.12281 904.94957,206.42105 904.94957,206.42105 L 896.15424,221.20468 C 896.15424,221.20468 907.10161,231.40351 925.16009,231.40351 940.22442,231.40351 954.25951,224.94737 954.25951,206.51462 954.25951,196.40936 944.80922,189.11111 936.20103,185.46199 927.40571,181.7193 920.10746,178.63158 920.10746,174.32748 920.10746,170.11696 923.28875,167.40351 929.27705,167.40351 937.23027,167.40351 944.90278,172.73684 944.90278,172.73684 L 952.01389,158.70175 C 952.01389,158.70175 942.09577,151.40351 928.06068,151.40351 Z"/>
	<path d="M 994.60456,191.35672 C 994.60456,213.90643 1010.6981,231.40351 1033.5285,231.40351 1055.704,231.40351 1072.3589,213.90643 1072.3589,191.35672 1072.3589,168.80702 1054.9554,151.40351 1033.5285,151.40351 1012.2888,151.40351 994.60456,168.80702 994.60456,191.35672 Z M 1013.5987,191.35672 C 1013.5987,179.84795 1019.9613,168.33918 1033.5285,168.33918 1047.1894,168.33918 1053.3648,179.84795 1053.3648,191.35672 1053.3648,202.8655 1047.5636,214.37427 1033.5285,214.37427 1019.1192,214.37427 1013.5987,202.8655 1013.5987,191.35672 Z"/>
	<path d="M 1129.7522,152.80702 1085.1206,152.80702 1085.1206,230 1102.7113,230 1102.7113,199.02924 1127.6937,199.02924 1127.6937,183.59064 1102.7113,183.59064 1102.7113,168.24561 1129.7522,168.24561 1129.7522,152.80702 Z"/>
	<path d="M 120.32528,252.80702 120.32528,330 149.61183,330 C 165.61183,330 174.87499,321.20468 174.87499,308.47953 174.87499,296.03509 168.04458,290.70175 158.40715,289.01754 164.95686,285.64912 168.04458,279.56725 168.04458,272.45614 168.04458,257.76608 157.56505,252.80702 144.2785,252.80702 L 120.32528,252.80702 Z M 137.91593,283.02924 137.91593,266.37427 139.31944,266.37427 C 146.99195,266.37427 151.01534,268.71345 151.01534,274.23392 151.01534,280.69006 146.89838,283.02924 139.31944,283.02924 L 137.91593,283.02924 Z M 137.91593,316.43275 137.91593,298.18713 143.43639,298.18713 C 151.76388,298.18713 156.34868,300.71345 156.34868,307.82456 156.34868,313.90643 151.76388,316.43275 143.43639,316.43275 L 137.91593,316.43275 Z"/>
	<path d="M 225.01973,252.80702 208.73903,252.80702 177.58113,330 196.48172,330 202.18932,314.5614 231.56944,314.5614 237.27704,330 256.17763,330 225.01973,252.80702 Z M 225.58113,299.12281 208.17763,299.12281 216.78581,276.66667 216.97295,276.66667 225.58113,299.12281 Z"/>
	<path d="M 264.09722,252.80702 264.09722,330 281.68787,330 281.68787,299.49708 305.26682,330 327.62939,330 301.05629,298.09357 C 310.50658,295.09941 316.86916,287.33333 316.86916,275.73099 316.86916,260.5731 306.01535,252.80702 291.69956,252.80702 L 264.09722,252.80702 Z M 281.68787,287.05263 281.68787,266.8421 283.74635,266.8421 C 290.38962,266.8421 298.34284,267.30994 298.34284,276.94737 298.34284,286.58479 290.38962,287.05263 283.74635,287.05263 L 281.68787,287.05263 Z"/>
	<path d="M 332.70395,291.35672 C 332.70395,313.90643 348.79751,331.40351 371.62792,331.40351 393.80336,331.40351 410.45833,313.90643 410.45833,291.35672 410.45833,268.80702 393.05483,251.40351 371.62792,251.40351 350.38816,251.40351 332.70395,268.80702 332.70395,291.35672 Z M 351.6981,291.35672 C 351.6981,279.84795 358.06067,268.33918 371.62792,268.33918 385.28874,268.33918 391.46418,279.84795 391.46418,291.35672 391.46418,302.8655 385.66301,314.37427 371.62792,314.37427 357.21857,314.37427 351.6981,302.8655 351.6981,291.35672 Z"/>
	<path d="M 440.81067,282.09357 440.99781,282.09357 471.68786,330 489.27851,330 489.27851,252.80702 471.68786,252.80702 471.68786,300.71345 471.50073,300.71345 440.81067,252.80702 423.22003,252.80702 423.22003,330 440.81067,330 440.81067,282.09357 Z"/>
	<path d="M 599.92031,330 617.51096,330 610.58698,252.80702 591.87353,252.80702 574.75072,297.34503 557.62792,252.80702 538.91447,252.80702 531.99049,330 549.58113,330 553.23026,284.24561 553.69809,284.24561 569.51096,329.53216 579.99049,329.53216 595.80336,284.24561 596.27119,284.24561 599.92031,330 Z"/>
	<path d="M 688.8794,252.80702 671.28876,252.80702 671.28876,297.4386 C 671.28876,310.35088 667.35894,314.09357 658.75075,314.09357 650.14256,314.09357 646.21274,310.35088 646.21274,297.4386 L 646.21274,252.80702 628.62209,252.80702 628.62209,302.58479 C 628.62209,321.67251 639.10163,331.40351 658.75075,331.40351 678.39987,331.40351 688.8794,321.67251 688.8794,302.58479 L 688.8794,252.80702 Z"/>
	<path d="M 721.77561,282.09357 721.96274,282.09357 752.6528,330 770.24344,330 770.24344,252.80702 752.6528,252.80702 752.6528,300.71345 752.46567,300.71345 721.77561,252.80702 704.18496,252.80702 704.18496,330 721.77561,330 721.77561,282.09357 Z"/>
	<path d="M 824.63965,314.09357 C 806.95544,314.09357 799.18936,301.74269 799.18936,291.35672 799.18936,281.06433 806.95544,268.71345 824.63965,268.71345 833.62211,268.71345 839.79754,273.48538 839.79754,273.48538 L 847.28292,258.51462 C 847.28292,258.51462 838.67474,251.40351 821.9262,251.40351 800.03146,251.40351 780.10164,269.36842 780.10164,291.54386 780.10164,313.62573 800.12503,331.40351 821.9262,331.40351 838.67474,331.40351 847.28292,324.2924 847.28292,324.2924 L 839.79754,309.32164 C 839.79754,309.32164 833.62211,314.09357 824.63965,314.09357 Z"/>
	<path d="M 876.69516,299.02924 901.58405,299.02924 901.58405,330 919.1747,330 919.1747,252.80702 901.58405,252.80702 901.58405,283.59064 876.69516,283.59064 876.69516,252.80702 859.10452,252.80702 859.10452,330 876.69516,330 876.69516,299.02924 Z"/>
	<path d="M 974.58117,252.80702 958.30047,252.80702 927.14257,330 946.04316,330 951.75076,314.5614 981.13088,314.5614 986.83848,330 1005.7391,330 974.58117,252.80702 Z M 975.14257,299.12281 957.73906,299.12281 966.34725,276.66667 966.53439,276.66667 975.14257,299.12281 Z"/>
	<path d="M 1072.9803,252.80702 1055.3897,252.80702 1055.3897,297.4386 C 1055.3897,310.35088 1051.4598,314.09357 1042.8516,314.09357 1034.2435,314.09357 1030.3136,310.35088 1030.3136,297.4386 L 1030.3136,252.80702 1012.723,252.80702 1012.723,302.58479 C 1012.723,321.67251 1023.2025,331.40351 1042.8516,331.40351 1062.5008,331.40351 1072.9803,321.67251 1072.9803,302.58479 L 1072.9803,252.80702 Z"/>
	<path d="M 1114.9028,251.40351 C 1102.4583,251.40351 1089.7332,260.5731 1089.7332,274.98246 1089.7332,283.02924 1095.1601,290.23392 1104.4233,294.81871 1113.5928,299.40351 1121.8268,301.92982 1121.8268,307.54386 1121.8268,314.74854 1114.5285,315.12281 1110.6923,315.12281 1102.0841,315.12281 1091.7917,306.42105 1091.7917,306.42105 L 1082.9964,321.20468 C 1082.9964,321.20468 1093.9437,331.40351 1112.0022,331.40351 1127.0665,331.40351 1141.1016,324.94737 1141.1016,306.51462 1141.1016,296.40936 1131.6513,289.11111 1123.0431,285.46199 1114.2478,281.7193 1106.9496,278.63158 1106.9496,274.32748 1106.9496,270.11696 1110.1309,267.40351 1116.1192,267.40351 1124.0724,267.40351 1131.7449,272.73684 1131.7449,272.73684 L 1138.856,258.70175 C 1138.856,258.70175 1128.9379,251.40351 1114.9028,251.40351 Z"/>
	<path d="M 1198.4876,252.80702 1154.3238,252.80702 1154.3238,330 1198.4876,330 1198.4876,314.5614 1171.9145,314.5614 1171.9145,299.02924 1197.3648,299.02924 1197.3648,283.59064 1171.9145,283.59064 1171.9145,268.24561 1198.4876,268.24561 1198.4876,252.80702 Z"/>
	<path d="M 1231.1908,282.09357 1231.378,282.09357 1262.068,330 1279.6587,330 1279.6587,252.80702 1262.068,252.80702 1262.068,300.71345 1261.8809,300.71345 1231.1908,252.80702 1213.6002,252.80702 1213.6002,330 1231.1908,330 1231.1908,282.09357 Z"/>
	<path d="M 234.52577,432.10526 234.52577,490 247.71875,490 247.71875,467.12281 265.40296,490 282.17489,490 262.24507,466.07018 C 269.33279,463.82456 274.10472,458 274.10472,449.29825 274.10472,437.92983 265.96437,432.10526 255.22753,432.10526 L 234.52577,432.10526 Z M 247.71875,457.78947 247.71875,442.63158 249.26261,442.63158 C 254.24507,442.63158 260.20998,442.98246 260.20998,450.21053 260.20998,457.4386 254.24507,457.78947 249.26261,457.78947 L 247.71875,457.78947 Z"/>
	<path d="M 334.31853,432.10526 321.12555,432.10526 321.12555,465.57895 C 321.12555,475.26316 318.17818,478.07018 311.72204,478.07018 305.2659,478.07018 302.31853,475.26316 302.31853,465.57895 L 302.31853,432.10526 289.12555,432.10526 289.12555,469.4386 C 289.12555,483.75439 296.9852,491.05263 311.72204,491.05263 326.45888,491.05263 334.31853,483.75439 334.31853,469.4386 L 334.31853,432.10526 Z"/>
	<path d="M 347.0477,432.10526 347.0477,490 363.81963,490 C 379.74945,490 393.01261,477.92982 393.01261,461.01754 393.01261,444.17544 379.67928,432.10526 363.81963,432.10526 L 347.0477,432.10526 Z M 360.24068,478.21053 360.24068,443.89474 362.27577,443.89474 C 372.10033,443.89474 378.767,451.40351 378.767,461.08772 378.69682,470.77193 372.03015,478.21053 362.27577,478.21053 L 360.24068,478.21053 Z"/>
	<path d="M 401.26043,461.01754 C 401.26043,477.92982 413.3306,491.05263 430.45341,491.05263 447.08499,491.05263 459.57622,477.92982 459.57622,461.01754 459.57622,444.10526 446.52358,431.05263 430.45341,431.05263 414.52358,431.05263 401.26043,444.10526 401.26043,461.01754 Z M 415.50604,461.01754 C 415.50604,452.38597 420.27797,443.75439 430.45341,443.75439 440.69902,443.75439 445.3306,452.38597 445.3306,461.01754 445.3306,469.64912 440.97972,478.2807 430.45341,478.2807 419.64639,478.2807 415.50604,469.64912 415.50604,461.01754 Z"/>
	<path d="M 483.59046,432.10526 470.39748,432.10526 470.39748,490 503.52028,490 503.52028,478.42105 483.59046,478.42105 483.59046,432.10526 Z"/>
	<path d="M 515.00822,432.10526 515.00822,490 528.20121,490 528.20121,468.52632 536.13103,468.52632 C 547.42928,468.52632 555.9205,461.85965 555.9205,449.92982 555.9205,437.92983 547.42928,432.10526 536.13103,432.10526 L 515.00822,432.10526 Z M 528.20121,458 528.20121,442.63158 531.9205,442.63158 C 537.11349,442.63158 542.02577,444.38597 542.02577,450.35088 542.02577,456.24561 537.11349,458 531.9205,458 L 528.20121,458 Z"/>
	<path d="M 579.93915,466.77193 598.60582,466.77193 598.60582,490 611.7988,490 611.7988,432.10526 598.60582,432.10526 598.60582,455.19298 579.93915,455.19298 579.93915,432.10526 566.74617,432.10526 566.74617,490 579.93915,490 579.93915,466.77193 Z"/>
	<path d="M 682.51152,432.10526 649.38872,432.10526 649.38872,490 682.51152,490 682.51152,478.42105 662.5817,478.42105 662.5817,466.77193 681.66942,466.77193 681.66942,455.19298 662.5817,455.19298 662.5817,443.68421 682.51152,443.68421 682.51152,432.10526 Z"/>
	<path d="M 695.09593,432.10526 695.09593,490 708.28891,490 708.28891,467.12281 725.97312,490 742.74505,490 722.81523,466.07018 C 729.90295,463.82456 734.67488,458 734.67488,449.29825 734.67488,437.92983 726.53453,432.10526 715.79769,432.10526 L 695.09593,432.10526 Z M 708.28891,457.78947 708.28891,442.63158 709.83277,442.63158 C 714.81523,442.63158 720.78014,442.98246 720.78014,450.21053 720.78014,457.4386 714.81523,457.78947 709.83277,457.78947 L 708.28891,457.78947 Z"/>
	<path d="M 763.59046,432.10526 750.39748,432.10526 750.39748,490 763.59046,490 763.59046,432.10526 Z"/>
	<path d="M 805.6672,478.07018 C 792.40404,478.07018 786.57948,468.80702 786.57948,461.01754 786.57948,453.29825 792.40404,444.03509 805.6672,444.03509 812.40404,444.03509 817.03562,447.61404 817.03562,447.61404 L 822.64966,436.38597 C 822.64966,436.38597 816.19352,431.05263 803.63211,431.05263 787.21106,431.05263 772.26369,444.52632 772.26369,461.1579 772.26369,477.7193 787.28124,491.05263 803.63211,491.05263 816.19352,491.05263 822.64966,485.7193 822.64966,485.7193 L 817.03562,474.49123 C 817.03562,474.49123 812.40404,478.07018 805.6672,478.07018 Z"/>
	<path d="M 845.95887,466.77193 864.62553,466.77193 864.62553,490 877.81852,490 877.81852,432.10526 864.62553,432.10526 864.62553,455.19298 845.95887,455.19298 845.95887,432.10526 832.76588,432.10526 832.76588,490 845.95887,490 845.95887,466.77193 Z"/>
	<path d="M 915.40846,432.10526 915.40846,490 928.60144,490 928.60144,467.12281 946.28565,490 963.05758,490 943.12776,466.07018 C 950.21548,463.82456 954.98741,458 954.98741,449.29825 954.98741,437.92983 946.84706,432.10526 936.11022,432.10526 L 915.40846,432.10526 Z M 928.60144,457.78947 928.60144,442.63158 930.1453,442.63158 C 935.12776,442.63158 941.09267,442.98246 941.09267,450.21053 941.09267,457.4386 935.12776,457.78947 930.1453,457.78947 L 928.60144,457.78947 Z"/>
	<path d="M 1000.1135,432.10526 987.90296,432.10526 964.53454,490 978.70998,490 982.99068,478.42105 1005.0258,478.42105 1009.3065,490 1023.4819,490 1000.1135,432.10526 Z M 1000.5345,466.84211 987.48191,466.84211 993.93805,450 994.0784,450 1000.5345,466.84211 Z"/>
	<path d="M 1050.6343,431.05263 C 1041.301,431.05263 1031.7571,437.92983 1031.7571,448.73684 1031.7571,454.77193 1035.8273,460.17544 1042.7747,463.61404 1049.6519,467.05263 1055.8273,468.94737 1055.8273,473.15789 1055.8273,478.5614 1050.3536,478.84211 1047.4764,478.84211 1041.0203,478.84211 1033.301,472.31579 1033.301,472.31579 L 1026.7045,483.40351 C 1026.7045,483.40351 1034.915,491.05263 1048.4589,491.05263 1059.7571,491.05263 1070.2834,486.21053 1070.2834,472.38597 1070.2834,464.80702 1063.1957,459.33333 1056.7396,456.59649 1050.1431,453.78947 1044.6694,451.47368 1044.6694,448.24561 1044.6694,445.08772 1047.0554,443.05263 1051.5466,443.05263 1057.5115,443.05263 1063.2659,447.05263 1063.2659,447.05263 L 1068.5992,436.52632 C 1068.5992,436.52632 1061.1606,431.05263 1050.6343,431.05263 Z"/>
	<path d="M 1081.4501,432.10526 1081.4501,490 1094.6431,490 1094.6431,468.52632 1102.5729,468.52632 C 1113.8711,468.52632 1122.3624,461.85965 1122.3624,449.92982 1122.3624,437.92983 1113.8711,432.10526 1102.5729,432.10526 L 1081.4501,432.10526 Z M 1094.6431,458 1094.6431,442.63158 1098.3624,442.63158 C 1103.5554,442.63158 1108.4676,444.38597 1108.4676,450.35088 1108.4676,456.24561 1103.5554,458 1098.3624,458 L 1094.6431,458 Z"/>
	<path d="M 1166.3109,432.10526 1133.1881,432.10526 1133.1881,490 1166.3109,490 1166.3109,478.42105 1146.381,478.42105 1146.381,466.77193 1165.4688,466.77193 1165.4688,455.19298 1146.381,455.19298 1146.381,443.68421 1166.3109,443.68421 1166.3109,432.10526 Z"/>
</svg>
